<?xml version="1.0" encoding="UTF-8" standalone="no"?>
<!DOCTYPE svg PUBLIC "-//W3C//DTD SVG 1.1//EN"
 "http://www.w3.org/Graphics/SVG/1.1/DTD/svg11.dtd">
<!-- Generated by graphviz version 2.40.1 (20161225.0304)
 -->
<!-- Title: dependencies Pages: 1 -->
<svg width="819pt" height="211pt"
 viewBox="0.00 0.00 819.00 211.00" xmlns="http://www.w3.org/2000/svg" xmlns:xlink="http://www.w3.org/1999/xlink">
<g id="graph0" class="graph" transform="scale(1 1) rotate(0) translate(4 207)">
<title>dependencies</title>
<polygon fill="#ffffff" stroke="transparent" points="-4,4 -4,-207 815,-207 815,4 -4,4"/>
<text text-anchor="start" x="384.5091" y="-42.4" font-family="sans-serif" font-weight="bold" font-size="14.00" fill="#000000">Legend</text>
<polygon fill="#ffffb3" stroke="transparent" points="171.5,-10 171.5,-30 191.5,-30 191.5,-10 171.5,-10"/>
<text text-anchor="start" x="195.129" y="-15.4" font-family="sans-serif" font-size="14.00" fill="#000000"> &#160;Declarations</text>
<polygon fill="#8dd3c7" stroke="transparent" points="284.5,-10 284.5,-30 304.5,-30 304.5,-10 284.5,-10"/>
<text text-anchor="start" x="308.2251" y="-15.4" font-family="sans-serif" font-size="14.00" fill="#000000"> &#160;Module</text>
<polygon fill="#80b1d3" stroke="transparent" points="370.5,-10 370.5,-30 390.5,-30 390.5,-10 370.5,-10"/>
<text text-anchor="start" x="394.2812" y="-15.4" font-family="sans-serif" font-size="14.00" fill="#000000"> &#160;Bootstrap</text>
<polygon fill="#fdb462" stroke="transparent" points="467.5,-10 467.5,-30 487.5,-30 487.5,-10 467.5,-10"/>
<text text-anchor="start" x="491.1732" y="-15.4" font-family="sans-serif" font-size="14.00" fill="#000000"> &#160;Providers</text>
<polygon fill="#fb8072" stroke="transparent" points="563.5,-10 563.5,-30 583.5,-30 583.5,-10 563.5,-10"/>
<text text-anchor="start" x="587.2258" y="-15.4" font-family="sans-serif" font-size="14.00" fill="#000000"> &#160;Exports</text>
<g id="clust1" class="cluster">
<title>cluster_UsersModule</title>
<polygon fill="none" stroke="#000000" stroke-dasharray="1,5" points="8,-70 8,-195 803,-195 803,-70 8,-70"/>
</g>
<g id="clust2" class="cluster">
<title>cluster_UsersModule_declarations</title>
<polygon fill="none" stroke="#000000" points="631,-78 631,-130 795,-130 795,-78 631,-78"/>
</g>
<g id="clust4" class="cluster">
<title>cluster_UsersModule_imports</title>
<polygon fill="none" stroke="#000000" points="368,-78 368,-130 623,-130 623,-78 368,-78"/>
</g>
<g id="clust7" class="cluster">
<title>cluster_UsersModule_providers</title>
<polygon fill="none" stroke="#000000" points="16,-78 16,-130 360,-130 360,-78 16,-78"/>
</g>
<!-- UsersDetailComponent -->
<g id="node1" class="node">
<title>UsersDetailComponent</title>
<polygon fill="#ffffb3" stroke="#000000" points="786.9116,-122 639.0884,-122 639.0884,-86 786.9116,-86 786.9116,-122"/>
<text text-anchor="middle" x="713" y="-99.8" font-family="Times,serif" font-size="14.00" fill="#000000">UsersDetailComponent</text>
</g>
<!-- UsersModule -->
<g id="node2" class="node">
<title>UsersModule</title>
<polygon fill="#8dd3c7" stroke="#000000" points="466.9218,-187 463.9218,-191 442.9218,-191 439.9218,-187 375.0782,-187 375.0782,-151 466.9218,-151 466.9218,-187"/>
<text text-anchor="middle" x="421" y="-164.8" font-family="Times,serif" font-size="14.00" fill="#000000">UsersModule</text>
</g>
<!-- UsersDetailComponent&#45;&gt;UsersModule -->
<g id="edge1" class="edge">
<title>UsersDetailComponent&#45;&gt;UsersModule</title>
<path fill="none" stroke="#000000" d="M713,-122.2843C713,-143.3211 713,-175 713,-175 713,-175 476.9462,-175 476.9462,-175"/>
<polygon fill="#000000" stroke="#000000" points="476.9463,-171.5001 466.9462,-175 476.9462,-178.5001 476.9463,-171.5001"/>
</g>
<!-- UserRoutingModule -->
<g id="node3" class="node">
<title>UserRoutingModule</title>
<polygon fill="#8dd3c7" stroke="#000000" points="614.594,-122 611.594,-126 590.594,-126 587.594,-122 483.406,-122 483.406,-86 614.594,-86 614.594,-122"/>
<text text-anchor="middle" x="549" y="-99.8" font-family="Times,serif" font-size="14.00" fill="#000000">UserRoutingModule</text>
</g>
<!-- UserRoutingModule&#45;&gt;UsersModule -->
<g id="edge2" class="edge">
<title>UserRoutingModule&#45;&gt;UsersModule</title>
<path fill="none" stroke="#000000" d="M549,-122.0225C549,-139.3734 549,-163 549,-163 549,-163 476.8494,-163 476.8494,-163"/>
<polygon fill="#000000" stroke="#000000" points="476.8494,-159.5001 466.8494,-163 476.8494,-166.5001 476.8494,-159.5001"/>
</g>
<!-- PostsModule -->
<g id="node4" class="node">
<title>PostsModule</title>
<polygon fill="#8dd3c7" stroke="#000000" points="465.6123,-122 462.6123,-126 441.6123,-126 438.6123,-122 376.3877,-122 376.3877,-86 465.6123,-86 465.6123,-122"/>
<text text-anchor="middle" x="421" y="-99.8" font-family="Times,serif" font-size="14.00" fill="#000000">PostsModule</text>
</g>
<!-- PostsModule&#45;&gt;UsersModule -->
<g id="edge3" class="edge">
<title>PostsModule&#45;&gt;UsersModule</title>
<path fill="none" stroke="#000000" d="M421,-122.1061C421,-122.1061 421,-140.991 421,-140.991"/>
<polygon fill="#000000" stroke="#000000" points="417.5001,-140.9909 421,-150.991 424.5001,-140.991 417.5001,-140.9909"/>
</g>
<!-- UserResolverService -->
<g id="node5" class="node">
<title>UserResolverService</title>
<ellipse fill="#fdb462" stroke="#000000" cx="259" cy="-104" rx="92.59" ry="18"/>
<text text-anchor="middle" x="259" y="-99.8" font-family="Times,serif" font-size="14.00" fill="#000000">UserResolverService</text>
</g>
<!-- UserResolverService&#45;&gt;UsersModule -->
<g id="edge4" class="edge">
<title>UserResolverService&#45;&gt;UsersModule</title>
<path fill="none" stroke="#000000" d="M259,-122.0225C259,-139.3734 259,-163 259,-163 259,-163 365.0106,-163 365.0106,-163"/>
<polygon fill="#000000" stroke="#000000" points="365.0107,-166.5001 375.0106,-163 365.0106,-159.5001 365.0107,-166.5001"/>
</g>
<!-- UsersService -->
<g id="node6" class="node">
<title>UsersService</title>
<ellipse fill="#fdb462" stroke="#000000" cx="86" cy="-104" rx="61.9519" ry="18"/>
<text text-anchor="middle" x="86" y="-99.8" font-family="Times,serif" font-size="14.00" fill="#000000">UsersService</text>
</g>
<!-- UsersService&#45;&gt;UsersModule -->
<g id="edge5" class="edge">
<title>UsersService&#45;&gt;UsersModule</title>
<path fill="none" stroke="#000000" d="M86,-122.2843C86,-143.3211 86,-175 86,-175 86,-175 365.1221,-175 365.1221,-175"/>
<polygon fill="#000000" stroke="#000000" points="365.1221,-178.5001 375.1221,-175 365.1221,-171.5001 365.1221,-178.5001"/>
</g>
</g>
</svg>
