<?xml version="1.0" encoding="UTF-8" standalone="no"?>
<!DOCTYPE svg PUBLIC "-//W3C//DTD SVG 1.1//EN"
 "http://www.w3.org/Graphics/SVG/1.1/DTD/svg11.dtd">
<!-- Generated by graphviz version 2.40.1 (20161225.0304)
 -->
<!-- Title: dependencies Pages: 1 -->
<svg width="1721pt" height="284pt"
 viewBox="0.00 0.00 1721.00 284.00" xmlns="http://www.w3.org/2000/svg" xmlns:xlink="http://www.w3.org/1999/xlink">
<g id="graph0" class="graph" transform="scale(1 1) rotate(0) translate(4 280)">
<title>dependencies</title>
<polygon fill="#ffffff" stroke="transparent" points="-4,4 -4,-280 1717,-280 1717,4 -4,4"/>
<text text-anchor="start" x="835.5091" y="-42.4" font-family="sans-serif" font-weight="bold" font-size="14.00" fill="#000000">Legend</text>
<polygon fill="#ffffb3" stroke="transparent" points="622.5,-10 622.5,-30 642.5,-30 642.5,-10 622.5,-10"/>
<text text-anchor="start" x="646.129" y="-15.4" font-family="sans-serif" font-size="14.00" fill="#000000"> &#160;Declarations</text>
<polygon fill="#8dd3c7" stroke="transparent" points="735.5,-10 735.5,-30 755.5,-30 755.5,-10 735.5,-10"/>
<text text-anchor="start" x="759.2251" y="-15.4" font-family="sans-serif" font-size="14.00" fill="#000000"> &#160;Module</text>
<polygon fill="#80b1d3" stroke="transparent" points="821.5,-10 821.5,-30 841.5,-30 841.5,-10 821.5,-10"/>
<text text-anchor="start" x="845.2812" y="-15.4" font-family="sans-serif" font-size="14.00" fill="#000000"> &#160;Bootstrap</text>
<polygon fill="#fdb462" stroke="transparent" points="918.5,-10 918.5,-30 938.5,-30 938.5,-10 918.5,-10"/>
<text text-anchor="start" x="942.1732" y="-15.4" font-family="sans-serif" font-size="14.00" fill="#000000"> &#160;Providers</text>
<polygon fill="#fb8072" stroke="transparent" points="1014.5,-10 1014.5,-30 1034.5,-30 1034.5,-10 1014.5,-10"/>
<text text-anchor="start" x="1038.2258" y="-15.4" font-family="sans-serif" font-size="14.00" fill="#000000"> &#160;Exports</text>
<g id="clust1" class="cluster">
<title>cluster_PostsModule</title>
<polygon fill="none" stroke="#000000" stroke-dasharray="1,5" points="8,-70 8,-268 1705,-268 1705,-70 8,-70"/>
</g>
<g id="clust2" class="cluster">
<title>cluster_PostsModule_declarations</title>
<polygon fill="none" stroke="#000000" points="423,-78 423,-130 1697,-130 1697,-78 423,-78"/>
</g>
<g id="clust12" class="cluster">
<title>cluster_PostsModule_imports</title>
<polygon fill="none" stroke="#000000" points="160,-78 160,-130 415,-130 415,-78 160,-78"/>
</g>
<g id="clust13" class="cluster">
<title>cluster_PostsModule_exports</title>
<polygon fill="none" stroke="#000000" points="679,-208 679,-260 1084,-260 1084,-208 679,-208"/>
</g>
<g id="clust15" class="cluster">
<title>cluster_PostsModule_providers</title>
<polygon fill="none" stroke="#000000" points="16,-78 16,-130 152,-130 152,-78 16,-78"/>
</g>
<!-- PostsComponent -->
<g id="node1" class="node">
<title>PostsComponent</title>
<polygon fill="#ffffb3" stroke="#000000" points="1689.3948,-122 1578.6052,-122 1578.6052,-86 1689.3948,-86 1689.3948,-122"/>
<text text-anchor="middle" x="1634" y="-99.8" font-family="Times,serif" font-size="14.00" fill="#000000">PostsComponent</text>
</g>
<!-- PostsModule -->
<g id="node10" class="node">
<title>PostsModule</title>
<polygon fill="#8dd3c7" stroke="#000000" points="898.6123,-187 895.6123,-191 874.6123,-191 871.6123,-187 809.3877,-187 809.3877,-151 898.6123,-151 898.6123,-187"/>
<text text-anchor="middle" x="854" y="-164.8" font-family="Times,serif" font-size="14.00" fill="#000000">PostsModule</text>
</g>
<!-- PostsComponent&#45;&gt;PostsModule -->
<g id="edge1" class="edge">
<title>PostsComponent&#45;&gt;PostsModule</title>
<path fill="none" stroke="#000000" d="M1634,-122.0449C1634,-143.6623 1634,-177 1634,-177 1634,-177 908.7377,-177 908.7377,-177"/>
<polygon fill="#000000" stroke="#000000" points="908.7377,-173.5001 898.7377,-177 908.7377,-180.5001 908.7377,-173.5001"/>
</g>
<!-- PostComponent -->
<g id="node2" class="node">
<title>PostComponent</title>
<polygon fill="#ffffb3" stroke="#000000" points="1560.9512,-122 1455.0488,-122 1455.0488,-86 1560.9512,-86 1560.9512,-122"/>
<text text-anchor="middle" x="1508" y="-99.8" font-family="Times,serif" font-size="14.00" fill="#000000">PostComponent</text>
</g>
<!-- PostComponent&#45;&gt;PostsModule -->
<g id="edge2" class="edge">
<title>PostComponent&#45;&gt;PostsModule</title>
<path fill="none" stroke="#000000" d="M1508,-122.2228C1508,-142.3652 1508,-172 1508,-172 1508,-172 908.6947,-172 908.6947,-172"/>
<polygon fill="#000000" stroke="#000000" points="908.6947,-168.5001 898.6947,-172 908.6946,-175.5001 908.6947,-168.5001"/>
</g>
<!-- PostnewadComponent -->
<g id="node3" class="node">
<title>PostnewadComponent</title>
<polygon fill="#ffffb3" stroke="#000000" points="1436.986,-122 1295.014,-122 1295.014,-86 1436.986,-86 1436.986,-122"/>
<text text-anchor="middle" x="1366" y="-99.8" font-family="Times,serif" font-size="14.00" fill="#000000">PostnewadComponent</text>
</g>
<!-- PostnewadComponent&#45;&gt;PostsModule -->
<g id="edge3" class="edge">
<title>PostnewadComponent&#45;&gt;PostsModule</title>
<path fill="none" stroke="#000000" d="M1366,-122.2222C1366,-140.8285 1366,-167 1366,-167 1366,-167 908.9879,-167 908.9879,-167"/>
<polygon fill="#000000" stroke="#000000" points="908.9879,-163.5001 898.9879,-167 908.9878,-170.5001 908.9879,-163.5001"/>
</g>
<!-- NewPostPipe -->
<g id="node4" class="node">
<title>NewPostPipe</title>
<polygon fill="#ffffb3" stroke="#000000" points="1276.9344,-122 1185.0656,-122 1185.0656,-86 1276.9344,-86 1276.9344,-122"/>
<text text-anchor="middle" x="1231" y="-99.8" font-family="Times,serif" font-size="14.00" fill="#000000">NewPostPipe</text>
</g>
<!-- NewPostPipe&#45;&gt;PostsModule -->
<g id="edge4" class="edge">
<title>NewPostPipe&#45;&gt;PostsModule</title>
<path fill="none" stroke="#000000" d="M1231,-122.0336C1231,-139.0597 1231,-162 1231,-162 1231,-162 908.7273,-162 908.7273,-162"/>
<polygon fill="#000000" stroke="#000000" points="908.7273,-158.5001 898.7273,-162 908.7273,-165.5001 908.7273,-158.5001"/>
</g>
<!-- PostDetailsComponent -->
<g id="node5" class="node">
<title>PostDetailsComponent</title>
<polygon fill="#ffffb3" stroke="#000000" points="1167.6024,-122 1022.3976,-122 1022.3976,-86 1167.6024,-86 1167.6024,-122"/>
<text text-anchor="middle" x="1095" y="-99.8" font-family="Times,serif" font-size="14.00" fill="#000000">PostDetailsComponent</text>
</g>
<!-- PostDetailsComponent&#45;&gt;PostsModule -->
<g id="edge5" class="edge">
<title>PostDetailsComponent&#45;&gt;PostsModule</title>
<path fill="none" stroke="#000000" d="M1049.0689,-122.2396C1049.0689,-137.5706 1049.0689,-157 1049.0689,-157 1049.0689,-157 908.7527,-157 908.7527,-157"/>
<polygon fill="#000000" stroke="#000000" points="908.7528,-153.5001 898.7527,-157 908.7527,-160.5001 908.7528,-153.5001"/>
</g>
<!-- MostpoluarComponent -->
<g id="node6" class="node">
<title>MostpoluarComponent</title>
<polygon fill="#ffffb3" stroke="#000000" points="1004.8781,-122 859.1219,-122 859.1219,-86 1004.8781,-86 1004.8781,-122"/>
<text text-anchor="middle" x="932" y="-99.8" font-family="Times,serif" font-size="14.00" fill="#000000">MostpoluarComponent</text>
</g>
<!-- MostpoluarComponent&#45;&gt;PostsModule -->
<g id="edge6" class="edge">
<title>MostpoluarComponent&#45;&gt;PostsModule</title>
<path fill="none" stroke="#000000" d="M878.8086,-122.1061C878.8086,-122.1061 878.8086,-140.991 878.8086,-140.991"/>
<polygon fill="#000000" stroke="#000000" points="875.3086,-140.9909 878.8086,-150.991 882.3086,-140.991 875.3086,-140.9909"/>
</g>
<!-- PostEditComponent -->
<g id="node7" class="node">
<title>PostEditComponent</title>
<polygon fill="#ffffb3" stroke="#000000" points="841.2842,-122 712.7158,-122 712.7158,-86 841.2842,-86 841.2842,-122"/>
<text text-anchor="middle" x="777" y="-99.8" font-family="Times,serif" font-size="14.00" fill="#000000">PostEditComponent</text>
</g>
<!-- PostEditComponent&#45;&gt;PostsModule -->
<g id="edge7" class="edge">
<title>PostEditComponent&#45;&gt;PostsModule</title>
<path fill="none" stroke="#000000" d="M825.418,-122.1061C825.418,-122.1061 825.418,-140.991 825.418,-140.991"/>
<polygon fill="#000000" stroke="#000000" points="821.918,-140.9909 825.418,-150.991 828.918,-140.991 821.918,-140.9909"/>
</g>
<!-- RemoveSpacesPipe -->
<g id="node8" class="node">
<title>RemoveSpacesPipe</title>
<polygon fill="#ffffb3" stroke="#000000" points="694.4159,-122 567.5841,-122 567.5841,-86 694.4159,-86 694.4159,-122"/>
<text text-anchor="middle" x="631" y="-99.8" font-family="Times,serif" font-size="14.00" fill="#000000">RemoveSpacesPipe</text>
</g>
<!-- RemoveSpacesPipe&#45;&gt;PostsModule -->
<g id="edge8" class="edge">
<title>RemoveSpacesPipe&#45;&gt;PostsModule</title>
<path fill="none" stroke="#000000" d="M690.3705,-122.2396C690.3705,-137.5706 690.3705,-157 690.3705,-157 690.3705,-157 799.2875,-157 799.2875,-157"/>
<polygon fill="#000000" stroke="#000000" points="799.2875,-160.5001 809.2875,-157 799.2875,-153.5001 799.2875,-160.5001"/>
</g>
<!-- FormatEmptyPipe -->
<g id="node9" class="node">
<title>FormatEmptyPipe</title>
<polygon fill="#ffffb3" stroke="#000000" points="549.1611,-122 430.8389,-122 430.8389,-86 549.1611,-86 549.1611,-122"/>
<text text-anchor="middle" x="490" y="-99.8" font-family="Times,serif" font-size="14.00" fill="#000000">FormatEmptyPipe</text>
</g>
<!-- FormatEmptyPipe&#45;&gt;PostsModule -->
<g id="edge9" class="edge">
<title>FormatEmptyPipe&#45;&gt;PostsModule</title>
<path fill="none" stroke="#000000" d="M490,-122.0336C490,-139.0597 490,-162 490,-162 490,-162 799.3665,-162 799.3665,-162"/>
<polygon fill="#000000" stroke="#000000" points="799.3665,-165.5001 809.3665,-162 799.3664,-158.5001 799.3665,-165.5001"/>
</g>
<!-- MostpoluarComponent  -->
<g id="node13" class="node">
<title>MostpoluarComponent </title>
<polygon fill="#fb8072" stroke="#000000" points="1075.8785,-252 926.1215,-252 926.1215,-216 1075.8785,-216 1075.8785,-252"/>
<text text-anchor="middle" x="1001" y="-229.8" font-family="Times,serif" font-size="14.00" fill="#000000">MostpoluarComponent </text>
</g>
<!-- PostsModule&#45;&gt;MostpoluarComponent  -->
<g id="edge12" class="edge">
<title>PostsModule&#45;&gt;MostpoluarComponent </title>
<path fill="none" stroke="#000000" stroke-dasharray="5,2" d="M898.759,-182C929.8139,-182 965.625,-182 965.625,-182 965.625,-182 965.625,-205.8129 965.625,-205.8129"/>
<polygon fill="#000000" stroke="#000000" points="962.1251,-205.8129 965.625,-215.8129 969.1251,-205.813 962.1251,-205.8129"/>
</g>
<!-- PostComponent  -->
<g id="node14" class="node">
<title>PostComponent </title>
<polygon fill="#fb8072" stroke="#000000" points="908.4502,-252 799.5498,-252 799.5498,-216 908.4502,-216 908.4502,-252"/>
<text text-anchor="middle" x="854" y="-229.8" font-family="Times,serif" font-size="14.00" fill="#000000">PostComponent </text>
</g>
<!-- PostsModule&#45;&gt;PostComponent  -->
<g id="edge13" class="edge">
<title>PostsModule&#45;&gt;PostComponent </title>
<path fill="none" stroke="#000000" stroke-dasharray="5,2" d="M854,-187.1061C854,-187.1061 854,-205.991 854,-205.991"/>
<polygon fill="#000000" stroke="#000000" points="850.5001,-205.9909 854,-215.991 857.5001,-205.991 850.5001,-205.9909"/>
</g>
<!-- NewPostPipe  -->
<g id="node15" class="node">
<title>NewPostPipe </title>
<polygon fill="#fb8072" stroke="#000000" points="781.4334,-252 686.5666,-252 686.5666,-216 781.4334,-216 781.4334,-252"/>
<text text-anchor="middle" x="734" y="-229.8" font-family="Times,serif" font-size="14.00" fill="#000000">NewPostPipe </text>
</g>
<!-- PostsModule&#45;&gt;NewPostPipe  -->
<g id="edge14" class="edge">
<title>PostsModule&#45;&gt;NewPostPipe </title>
<path fill="none" stroke="#000000" stroke-dasharray="5,2" d="M809.258,-182C779.9474,-182 747.0373,-182 747.0373,-182 747.0373,-182 747.0373,-205.8129 747.0373,-205.8129"/>
<polygon fill="#000000" stroke="#000000" points="743.5374,-205.8129 747.0373,-215.8129 750.5374,-205.813 743.5374,-205.8129"/>
</g>
<!-- UtilsModule -->
<g id="node11" class="node">
<title>UtilsModule</title>
<polygon fill="#8dd3c7" stroke="#000000" points="407.2731,-122 404.2731,-126 383.2731,-126 380.2731,-122 320.7269,-122 320.7269,-86 407.2731,-86 407.2731,-122"/>
<text text-anchor="middle" x="364" y="-99.8" font-family="Times,serif" font-size="14.00" fill="#000000">UtilsModule</text>
</g>
<!-- UtilsModule&#45;&gt;PostsModule -->
<g id="edge10" class="edge">
<title>UtilsModule&#45;&gt;PostsModule</title>
<path fill="none" stroke="#000000" d="M364,-122.2222C364,-140.8285 364,-167 364,-167 364,-167 799.2168,-167 799.2168,-167"/>
<polygon fill="#000000" stroke="#000000" points="799.2168,-170.5001 809.2168,-167 799.2168,-163.5001 799.2168,-170.5001"/>
</g>
<!-- PostsRoutingModule -->
<g id="node12" class="node">
<title>PostsRoutingModule</title>
<polygon fill="#8dd3c7" stroke="#000000" points="302.2302,-122 299.2302,-126 278.2302,-126 275.2302,-122 167.7698,-122 167.7698,-86 302.2302,-86 302.2302,-122"/>
<text text-anchor="middle" x="235" y="-99.8" font-family="Times,serif" font-size="14.00" fill="#000000">PostsRoutingModule</text>
</g>
<!-- PostsRoutingModule&#45;&gt;PostsModule -->
<g id="edge11" class="edge">
<title>PostsRoutingModule&#45;&gt;PostsModule</title>
<path fill="none" stroke="#000000" d="M235,-122.2228C235,-142.3652 235,-172 235,-172 235,-172 799.234,-172 799.234,-172"/>
<polygon fill="#000000" stroke="#000000" points="799.2341,-175.5001 809.234,-172 799.234,-168.5001 799.2341,-175.5001"/>
</g>
<!-- PostsService -->
<g id="node16" class="node">
<title>PostsService</title>
<ellipse fill="#fdb462" stroke="#000000" cx="84" cy="-104" rx="60.2672" ry="18"/>
<text text-anchor="middle" x="84" y="-99.8" font-family="Times,serif" font-size="14.00" fill="#000000">PostsService</text>
</g>
<!-- PostsService&#45;&gt;PostsModule -->
<g id="edge15" class="edge">
<title>PostsService&#45;&gt;PostsModule</title>
<path fill="none" stroke="#000000" d="M84,-122.0449C84,-143.6623 84,-177 84,-177 84,-177 799.2733,-177 799.2733,-177"/>
<polygon fill="#000000" stroke="#000000" points="799.2734,-180.5001 809.2733,-177 799.2733,-173.5001 799.2734,-180.5001"/>
</g>
</g>
</svg>
