<?xml version="1.0" encoding="UTF-8" standalone="no"?>
<!DOCTYPE svg PUBLIC "-//W3C//DTD SVG 1.1//EN"
 "http://www.w3.org/Graphics/SVG/1.1/DTD/svg11.dtd">
<!-- Generated by graphviz version 2.40.1 (20161225.0304)
 -->
<!-- Title: dependencies Pages: 1 -->
<svg width="520pt" height="284pt"
 viewBox="0.00 0.00 520.00 284.00" xmlns="http://www.w3.org/2000/svg" xmlns:xlink="http://www.w3.org/1999/xlink">
<g id="graph0" class="graph" transform="scale(1 1) rotate(0) translate(4 280)">
<title>dependencies</title>
<polygon fill="#ffffff" stroke="transparent" points="-4,4 -4,-280 516,-280 516,4 -4,4"/>
<text text-anchor="start" x="235.0091" y="-42.4" font-family="sans-serif" font-weight="bold" font-size="14.00" fill="#000000">Legend</text>
<polygon fill="#ffffb3" stroke="transparent" points="22,-10 22,-30 42,-30 42,-10 22,-10"/>
<text text-anchor="start" x="45.629" y="-15.4" font-family="sans-serif" font-size="14.00" fill="#000000"> &#160;Declarations</text>
<polygon fill="#8dd3c7" stroke="transparent" points="135,-10 135,-30 155,-30 155,-10 135,-10"/>
<text text-anchor="start" x="158.7251" y="-15.4" font-family="sans-serif" font-size="14.00" fill="#000000"> &#160;Module</text>
<polygon fill="#80b1d3" stroke="transparent" points="221,-10 221,-30 241,-30 241,-10 221,-10"/>
<text text-anchor="start" x="244.7812" y="-15.4" font-family="sans-serif" font-size="14.00" fill="#000000"> &#160;Bootstrap</text>
<polygon fill="#fdb462" stroke="transparent" points="318,-10 318,-30 338,-30 338,-10 318,-10"/>
<text text-anchor="start" x="341.6732" y="-15.4" font-family="sans-serif" font-size="14.00" fill="#000000"> &#160;Providers</text>
<polygon fill="#fb8072" stroke="transparent" points="414,-10 414,-30 434,-30 434,-10 414,-10"/>
<text text-anchor="start" x="437.7258" y="-15.4" font-family="sans-serif" font-size="14.00" fill="#000000"> &#160;Exports</text>
<g id="clust1" class="cluster">
<title>cluster_UtilsModule</title>
<polygon fill="none" stroke="#000000" stroke-dasharray="1,5" points="8,-70 8,-268 504,-268 504,-70 8,-70"/>
</g>
<g id="clust2" class="cluster">
<title>cluster_UtilsModule_declarations</title>
<polygon fill="none" stroke="#000000" points="21,-78 21,-130 491,-130 491,-78 21,-78"/>
</g>
<g id="clust7" class="cluster">
<title>cluster_UtilsModule_exports</title>
<polygon fill="none" stroke="#000000" points="16,-208 16,-260 496,-260 496,-208 16,-208"/>
</g>
<!-- LoadImageComponent -->
<g id="node1" class="node">
<title>LoadImageComponent</title>
<polygon fill="#ffffb3" stroke="#000000" points="482.58,-122 337.42,-122 337.42,-86 482.58,-86 482.58,-122"/>
<text text-anchor="middle" x="410" y="-99.8" font-family="Times,serif" font-size="14.00" fill="#000000">LoadImageComponent</text>
</g>
<!-- UtilsModule -->
<g id="node4" class="node">
<title>UtilsModule</title>
<polygon fill="#8dd3c7" stroke="#000000" points="292.2731,-187 289.2731,-191 268.2731,-191 265.2731,-187 205.7269,-187 205.7269,-151 292.2731,-151 292.2731,-187"/>
<text text-anchor="middle" x="249" y="-164.8" font-family="Times,serif" font-size="14.00" fill="#000000">UtilsModule</text>
</g>
<!-- LoadImageComponent&#45;&gt;UtilsModule -->
<g id="edge1" class="edge">
<title>LoadImageComponent&#45;&gt;UtilsModule</title>
<path fill="none" stroke="#000000" d="M434.93,-122.0225C434.93,-139.3734 434.93,-163 434.93,-163 434.93,-163 302.5923,-163 302.5923,-163"/>
<polygon fill="#000000" stroke="#000000" points="302.5924,-159.5001 292.5923,-163 302.5923,-166.5001 302.5924,-159.5001"/>
</g>
<!-- PaginationComponent -->
<g id="node2" class="node">
<title>PaginationComponent</title>
<polygon fill="#ffffb3" stroke="#000000" points="319.7162,-122 178.2838,-122 178.2838,-86 319.7162,-86 319.7162,-122"/>
<text text-anchor="middle" x="249" y="-99.8" font-family="Times,serif" font-size="14.00" fill="#000000">PaginationComponent</text>
</g>
<!-- PaginationComponent&#45;&gt;UtilsModule -->
<g id="edge2" class="edge">
<title>PaginationComponent&#45;&gt;UtilsModule</title>
<path fill="none" stroke="#000000" d="M249,-122.1061C249,-122.1061 249,-140.991 249,-140.991"/>
<polygon fill="#000000" stroke="#000000" points="245.5001,-140.9909 249,-150.991 252.5001,-140.991 245.5001,-140.9909"/>
</g>
<!-- CarouselComponent -->
<g id="node3" class="node">
<title>CarouselComponent</title>
<polygon fill="#ffffb3" stroke="#000000" points="160.594,-122 29.406,-122 29.406,-86 160.594,-86 160.594,-122"/>
<text text-anchor="middle" x="95" y="-99.8" font-family="Times,serif" font-size="14.00" fill="#000000">CarouselComponent</text>
</g>
<!-- CarouselComponent&#45;&gt;UtilsModule -->
<g id="edge3" class="edge">
<title>CarouselComponent&#45;&gt;UtilsModule</title>
<path fill="none" stroke="#000000" d="M115.349,-122.0225C115.349,-139.3734 115.349,-163 115.349,-163 115.349,-163 195.6074,-163 195.6074,-163"/>
<polygon fill="#000000" stroke="#000000" points="195.6074,-166.5001 205.6074,-163 195.6073,-159.5001 195.6074,-166.5001"/>
</g>
<!-- LoadImageComponent  -->
<g id="node5" class="node">
<title>LoadImageComponent </title>
<polygon fill="#fb8072" stroke="#000000" points="488.0806,-252 339.9194,-252 339.9194,-216 488.0806,-216 488.0806,-252"/>
<text text-anchor="middle" x="414" y="-229.8" font-family="Times,serif" font-size="14.00" fill="#000000">LoadImageComponent </text>
</g>
<!-- UtilsModule&#45;&gt;LoadImageComponent  -->
<g id="edge4" class="edge">
<title>UtilsModule&#45;&gt;LoadImageComponent </title>
<path fill="none" stroke="#000000" stroke-dasharray="5,2" d="M292.3858,-175C332.9505,-175 387.32,-175 387.32,-175 387.32,-175 387.32,-205.9775 387.32,-205.9775"/>
<polygon fill="#000000" stroke="#000000" points="383.8201,-205.9774 387.32,-215.9775 390.8201,-205.9775 383.8201,-205.9774"/>
</g>
<!-- PaginationComponent  -->
<g id="node6" class="node">
<title>PaginationComponent </title>
<polygon fill="#fb8072" stroke="#000000" points="321.2163,-252 176.7837,-252 176.7837,-216 321.2163,-216 321.2163,-252"/>
<text text-anchor="middle" x="249" y="-229.8" font-family="Times,serif" font-size="14.00" fill="#000000">PaginationComponent </text>
</g>
<!-- UtilsModule&#45;&gt;PaginationComponent  -->
<g id="edge5" class="edge">
<title>UtilsModule&#45;&gt;PaginationComponent </title>
<path fill="none" stroke="#000000" stroke-dasharray="5,2" d="M249,-187.1061C249,-187.1061 249,-205.991 249,-205.991"/>
<polygon fill="#000000" stroke="#000000" points="245.5001,-205.9909 249,-215.991 252.5001,-205.991 245.5001,-205.9909"/>
</g>
<!-- CarouselComponent  -->
<g id="node7" class="node">
<title>CarouselComponent </title>
<polygon fill="#fb8072" stroke="#000000" points="158.0946,-252 23.9054,-252 23.9054,-216 158.0946,-216 158.0946,-252"/>
<text text-anchor="middle" x="91" y="-229.8" font-family="Times,serif" font-size="14.00" fill="#000000">CarouselComponent </text>
</g>
<!-- UtilsModule&#45;&gt;CarouselComponent  -->
<g id="edge6" class="edge">
<title>UtilsModule&#45;&gt;CarouselComponent </title>
<path fill="none" stroke="#000000" stroke-dasharray="5,2" d="M205.3463,-175C153.0503,-175 72.401,-175 72.401,-175 72.401,-175 72.401,-205.9775 72.401,-205.9775"/>
<polygon fill="#000000" stroke="#000000" points="68.9011,-205.9774 72.401,-215.9775 75.9011,-205.9775 68.9011,-205.9774"/>
</g>
</g>
</svg>
