<?xml version="1.0" encoding="UTF-8" standalone="no"?>
<!DOCTYPE svg PUBLIC "-//W3C//DTD SVG 1.1//EN"
 "http://www.w3.org/Graphics/SVG/1.1/DTD/svg11.dtd">
<!-- Generated by graphviz version 2.40.1 (20161225.0304)
 -->
<!-- Title: dependencies Pages: 1 -->
<svg width="512pt" height="284pt"
 viewBox="0.00 0.00 512.00 284.00" xmlns="http://www.w3.org/2000/svg" xmlns:xlink="http://www.w3.org/1999/xlink">
<g id="graph0" class="graph" transform="scale(1 1) rotate(0) translate(4 280)">
<title>dependencies</title>
<polygon fill="#ffffff" stroke="transparent" points="-4,4 -4,-280 508,-280 508,4 -4,4"/>
<text text-anchor="start" x="231.0091" y="-42.4" font-family="sans-serif" font-weight="bold" font-size="14.00" fill="#000000">Legend</text>
<polygon fill="#ffffb3" stroke="transparent" points="18,-10 18,-30 38,-30 38,-10 18,-10"/>
<text text-anchor="start" x="41.629" y="-15.4" font-family="sans-serif" font-size="14.00" fill="#000000"> &#160;Declarations</text>
<polygon fill="#8dd3c7" stroke="transparent" points="131,-10 131,-30 151,-30 151,-10 131,-10"/>
<text text-anchor="start" x="154.7251" y="-15.4" font-family="sans-serif" font-size="14.00" fill="#000000"> &#160;Module</text>
<polygon fill="#80b1d3" stroke="transparent" points="217,-10 217,-30 237,-30 237,-10 217,-10"/>
<text text-anchor="start" x="240.7812" y="-15.4" font-family="sans-serif" font-size="14.00" fill="#000000"> &#160;Bootstrap</text>
<polygon fill="#fdb462" stroke="transparent" points="314,-10 314,-30 334,-30 334,-10 314,-10"/>
<text text-anchor="start" x="337.6732" y="-15.4" font-family="sans-serif" font-size="14.00" fill="#000000"> &#160;Providers</text>
<polygon fill="#fb8072" stroke="transparent" points="410,-10 410,-30 430,-30 430,-10 410,-10"/>
<text text-anchor="start" x="433.7258" y="-15.4" font-family="sans-serif" font-size="14.00" fill="#000000"> &#160;Exports</text>
<g id="clust1" class="cluster">
<title>cluster_ArticlesModule</title>
<polygon fill="none" stroke="#000000" stroke-dasharray="1,5" points="8,-70 8,-268 496,-268 496,-70 8,-70"/>
</g>
<g id="clust2" class="cluster">
<title>cluster_ArticlesModule_declarations</title>
<polygon fill="none" stroke="#000000" points="292,-78 292,-130 488,-130 488,-78 292,-78"/>
</g>
<g id="clust4" class="cluster">
<title>cluster_ArticlesModule_imports</title>
<polygon fill="none" stroke="#000000" points="182,-78 182,-130 284,-130 284,-78 182,-78"/>
</g>
<g id="clust5" class="cluster">
<title>cluster_ArticlesModule_exports</title>
<polygon fill="none" stroke="#000000" points="133,-208 133,-260 333,-260 333,-208 133,-208"/>
</g>
<g id="clust7" class="cluster">
<title>cluster_ArticlesModule_providers</title>
<polygon fill="none" stroke="#000000" points="16,-78 16,-130 174,-130 174,-78 16,-78"/>
</g>
<!-- ArticlesContainerComponent -->
<g id="node1" class="node">
<title>ArticlesContainerComponent</title>
<polygon fill="#ffffb3" stroke="#000000" points="480.3529,-122 299.6471,-122 299.6471,-86 480.3529,-86 480.3529,-122"/>
<text text-anchor="middle" x="390" y="-99.8" font-family="Times,serif" font-size="14.00" fill="#000000">ArticlesContainerComponent</text>
</g>
<!-- ArticlesModule -->
<g id="node2" class="node">
<title>ArticlesModule</title>
<polygon fill="#8dd3c7" stroke="#000000" points="284.8627,-187 281.8627,-191 260.8627,-191 257.8627,-187 181.1373,-187 181.1373,-151 284.8627,-151 284.8627,-187"/>
<text text-anchor="middle" x="233" y="-164.8" font-family="Times,serif" font-size="14.00" fill="#000000">ArticlesModule</text>
</g>
<!-- ArticlesContainerComponent&#45;&gt;ArticlesModule -->
<g id="edge1" class="edge">
<title>ArticlesContainerComponent&#45;&gt;ArticlesModule</title>
<path fill="none" stroke="#000000" d="M299.2071,-104C288.1484,-104 280.6589,-104 280.6589,-104 280.6589,-104 280.6589,-140.8939 280.6589,-140.8939"/>
<polygon fill="#000000" stroke="#000000" points="277.1589,-140.8938 280.6589,-150.8939 284.1589,-140.8939 277.1589,-140.8938"/>
</g>
<!-- ArticlesContainerComponent  -->
<g id="node4" class="node">
<title>ArticlesContainerComponent </title>
<polygon fill="#fb8072" stroke="#000000" points="325.3531,-252 140.6469,-252 140.6469,-216 325.3531,-216 325.3531,-252"/>
<text text-anchor="middle" x="233" y="-229.8" font-family="Times,serif" font-size="14.00" fill="#000000">ArticlesContainerComponent </text>
</g>
<!-- ArticlesModule&#45;&gt;ArticlesContainerComponent  -->
<g id="edge3" class="edge">
<title>ArticlesModule&#45;&gt;ArticlesContainerComponent </title>
<path fill="none" stroke="#000000" stroke-dasharray="5,2" d="M233,-187.1061C233,-187.1061 233,-205.991 233,-205.991"/>
<polygon fill="#000000" stroke="#000000" points="229.5001,-205.9909 233,-215.991 236.5001,-205.991 229.5001,-205.9909"/>
</g>
<!-- UtilsModule -->
<g id="node3" class="node">
<title>UtilsModule</title>
<polygon fill="#8dd3c7" stroke="#000000" points="276.2731,-122 273.2731,-126 252.2731,-126 249.2731,-122 189.7269,-122 189.7269,-86 276.2731,-86 276.2731,-122"/>
<text text-anchor="middle" x="233" y="-99.8" font-family="Times,serif" font-size="14.00" fill="#000000">UtilsModule</text>
</g>
<!-- UtilsModule&#45;&gt;ArticlesModule -->
<g id="edge2" class="edge">
<title>UtilsModule&#45;&gt;ArticlesModule</title>
<path fill="none" stroke="#000000" d="M233,-122.1061C233,-122.1061 233,-140.991 233,-140.991"/>
<polygon fill="#000000" stroke="#000000" points="229.5001,-140.9909 233,-150.991 236.5001,-140.991 229.5001,-140.9909"/>
</g>
<!-- ArticlesService -->
<g id="node5" class="node">
<title>ArticlesService</title>
<ellipse fill="#fdb462" stroke="#000000" cx="95" cy="-104" rx="70.6162" ry="18"/>
<text text-anchor="middle" x="95" y="-99.8" font-family="Times,serif" font-size="14.00" fill="#000000">ArticlesService</text>
</g>
<!-- ArticlesService&#45;&gt;ArticlesModule -->
<g id="edge4" class="edge">
<title>ArticlesService&#45;&gt;ArticlesModule</title>
<path fill="none" stroke="#000000" d="M165.7385,-104C177.168,-104 185.3412,-104 185.3412,-104 185.3412,-104 185.3412,-140.8939 185.3412,-140.8939"/>
<polygon fill="#000000" stroke="#000000" points="181.8412,-140.8938 185.3412,-150.8939 188.8412,-140.8939 181.8412,-140.8938"/>
</g>
</g>
</svg>
