<?xml version="1.0" encoding="UTF-8" standalone="no"?>
<!DOCTYPE svg PUBLIC "-//W3C//DTD SVG 1.1//EN"
 "http://www.w3.org/Graphics/SVG/1.1/DTD/svg11.dtd">
<!-- Generated by graphviz version 2.40.1 (20161225.0304)
 -->
<!-- Title: dependencies Pages: 1 -->
<svg width="1052pt" height="284pt"
 viewBox="0.00 0.00 1052.00 284.00" xmlns="http://www.w3.org/2000/svg" xmlns:xlink="http://www.w3.org/1999/xlink">
<g id="graph0" class="graph" transform="scale(1 1) rotate(0) translate(4 280)">
<title>dependencies</title>
<polygon fill="#ffffff" stroke="transparent" points="-4,4 -4,-280 1048,-280 1048,4 -4,4"/>
<text text-anchor="start" x="501.0091" y="-42.4" font-family="sans-serif" font-weight="bold" font-size="14.00" fill="#000000">Legend</text>
<polygon fill="#ffffb3" stroke="transparent" points="288,-10 288,-30 308,-30 308,-10 288,-10"/>
<text text-anchor="start" x="311.629" y="-15.4" font-family="sans-serif" font-size="14.00" fill="#000000"> &#160;Declarations</text>
<polygon fill="#8dd3c7" stroke="transparent" points="401,-10 401,-30 421,-30 421,-10 401,-10"/>
<text text-anchor="start" x="424.7251" y="-15.4" font-family="sans-serif" font-size="14.00" fill="#000000"> &#160;Module</text>
<polygon fill="#80b1d3" stroke="transparent" points="487,-10 487,-30 507,-30 507,-10 487,-10"/>
<text text-anchor="start" x="510.7812" y="-15.4" font-family="sans-serif" font-size="14.00" fill="#000000"> &#160;Bootstrap</text>
<polygon fill="#fdb462" stroke="transparent" points="584,-10 584,-30 604,-30 604,-10 584,-10"/>
<text text-anchor="start" x="607.6732" y="-15.4" font-family="sans-serif" font-size="14.00" fill="#000000"> &#160;Providers</text>
<polygon fill="#fb8072" stroke="transparent" points="680,-10 680,-30 700,-30 700,-10 680,-10"/>
<text text-anchor="start" x="703.7258" y="-15.4" font-family="sans-serif" font-size="14.00" fill="#000000"> &#160;Exports</text>
<g id="clust1" class="cluster">
<title>cluster_AppModule</title>
<polygon fill="none" stroke="#000000" stroke-dasharray="1,5" points="8,-70 8,-268 1036,-268 1036,-70 8,-70"/>
</g>
<g id="clust2" class="cluster">
<title>cluster_AppModule_declarations</title>
<polygon fill="none" stroke="#000000" points="630,-78 630,-130 1028,-130 1028,-78 630,-78"/>
</g>
<g id="clust6" class="cluster">
<title>cluster_AppModule_imports</title>
<polygon fill="none" stroke="#000000" points="16,-78 16,-130 622,-130 622,-78 16,-78"/>
</g>
<g id="clust8" class="cluster">
<title>cluster_AppModule_bootstrap</title>
<polygon fill="none" stroke="#000000" points="424,-208 424,-260 548,-260 548,-208 424,-208"/>
</g>
<!-- AppComponent -->
<g id="node1" class="node">
<title>AppComponent</title>
<polygon fill="#ffffb3" stroke="#000000" points="1019.9399,-122 914.0601,-122 914.0601,-86 1019.9399,-86 1019.9399,-122"/>
<text text-anchor="middle" x="967" y="-99.8" font-family="Times,serif" font-size="14.00" fill="#000000">AppComponent</text>
</g>
<!-- AppModule -->
<g id="node4" class="node">
<title>AppModule</title>
<polygon fill="#8dd3c7" stroke="#000000" points="527.6571,-187 524.6571,-191 503.6571,-191 500.6571,-187 444.3429,-187 444.3429,-151 527.6571,-151 527.6571,-187"/>
<text text-anchor="middle" x="486" y="-164.8" font-family="Times,serif" font-size="14.00" fill="#000000">AppModule</text>
</g>
<!-- AppComponent&#45;&gt;AppModule -->
<g id="edge1" class="edge">
<title>AppComponent&#45;&gt;AppModule</title>
<path fill="none" stroke="#000000" d="M967,-122.2921C967,-144.2057 967,-178 967,-178 967,-178 537.8442,-178 537.8442,-178"/>
<polygon fill="#000000" stroke="#000000" points="537.8442,-174.5001 527.8442,-178 537.8441,-181.5001 537.8442,-174.5001"/>
</g>
<!-- HeaderComponent -->
<g id="node2" class="node">
<title>HeaderComponent</title>
<polygon fill="#ffffb3" stroke="#000000" points="895.7437,-122 774.2563,-122 774.2563,-86 895.7437,-86 895.7437,-122"/>
<text text-anchor="middle" x="835" y="-99.8" font-family="Times,serif" font-size="14.00" fill="#000000">HeaderComponent</text>
</g>
<!-- HeaderComponent&#45;&gt;AppModule -->
<g id="edge2" class="edge">
<title>HeaderComponent&#45;&gt;AppModule</title>
<path fill="none" stroke="#000000" d="M835,-122.1061C835,-141.3391 835,-169 835,-169 835,-169 537.7509,-169 537.7509,-169"/>
<polygon fill="#000000" stroke="#000000" points="537.7509,-165.5001 527.7509,-169 537.7509,-172.5001 537.7509,-165.5001"/>
</g>
<!-- FooterComponent -->
<g id="node3" class="node">
<title>FooterComponent</title>
<polygon fill="#ffffb3" stroke="#000000" points="755.8809,-122 638.1191,-122 638.1191,-86 755.8809,-86 755.8809,-122"/>
<text text-anchor="middle" x="697" y="-99.8" font-family="Times,serif" font-size="14.00" fill="#000000">FooterComponent</text>
</g>
<!-- FooterComponent&#45;&gt;AppModule -->
<g id="edge3" class="edge">
<title>FooterComponent&#45;&gt;AppModule</title>
<path fill="none" stroke="#000000" d="M697,-122.027C697,-138.3976 697,-160 697,-160 697,-160 537.6868,-160 537.6868,-160"/>
<polygon fill="#000000" stroke="#000000" points="537.6868,-156.5001 527.6868,-160 537.6868,-163.5001 537.6868,-156.5001"/>
</g>
<!-- AppComponent  -->
<g id="node10" class="node">
<title>AppComponent </title>
<polygon fill="#80b1d3" stroke="#000000" points="540.439,-252 431.561,-252 431.561,-216 540.439,-216 540.439,-252"/>
<text text-anchor="middle" x="486" y="-229.8" font-family="Times,serif" font-size="14.00" fill="#000000">AppComponent </text>
</g>
<!-- AppModule&#45;&gt;AppComponent  -->
<g id="edge9" class="edge">
<title>AppModule&#45;&gt;AppComponent </title>
<path fill="none" stroke="#000000" stroke-dasharray="1,5" d="M486,-187.1061C486,-187.1061 486,-205.991 486,-205.991"/>
<polygon fill="#000000" stroke="#000000" points="482.5001,-205.9909 486,-215.991 489.5001,-205.991 482.5001,-205.9909"/>
</g>
<!-- AppRoutingModule -->
<g id="node5" class="node">
<title>AppRoutingModule</title>
<polygon fill="#8dd3c7" stroke="#000000" points="614.2744,-122 611.2744,-126 590.2744,-126 587.2744,-122 485.7256,-122 485.7256,-86 614.2744,-86 614.2744,-122"/>
<text text-anchor="middle" x="550" y="-99.8" font-family="Times,serif" font-size="14.00" fill="#000000">AppRoutingModule</text>
</g>
<!-- AppRoutingModule&#45;&gt;AppModule -->
<g id="edge4" class="edge">
<title>AppRoutingModule&#45;&gt;AppModule</title>
<path fill="none" stroke="#000000" d="M506.7206,-122.1061C506.7206,-122.1061 506.7206,-140.991 506.7206,-140.991"/>
<polygon fill="#000000" stroke="#000000" points="503.2206,-140.9909 506.7206,-150.991 510.2206,-140.991 503.2206,-140.9909"/>
</g>
<!-- UsersModule -->
<g id="node6" class="node">
<title>UsersModule</title>
<polygon fill="#8dd3c7" stroke="#000000" points="467.9218,-122 464.9218,-126 443.9218,-126 440.9218,-122 376.0782,-122 376.0782,-86 467.9218,-86 467.9218,-122"/>
<text text-anchor="middle" x="422" y="-99.8" font-family="Times,serif" font-size="14.00" fill="#000000">UsersModule</text>
</g>
<!-- UsersModule&#45;&gt;AppModule -->
<g id="edge5" class="edge">
<title>UsersModule&#45;&gt;AppModule</title>
<path fill="none" stroke="#000000" d="M455.9411,-122.1061C455.9411,-122.1061 455.9411,-140.991 455.9411,-140.991"/>
<polygon fill="#000000" stroke="#000000" points="452.4412,-140.9909 455.9411,-150.991 459.4412,-140.991 452.4412,-140.9909"/>
</g>
<!-- FirebaseModule -->
<g id="node7" class="node">
<title>FirebaseModule</title>
<polygon fill="#8dd3c7" stroke="#000000" points="358.472,-122 355.472,-126 334.472,-126 331.472,-122 251.528,-122 251.528,-86 358.472,-86 358.472,-122"/>
<text text-anchor="middle" x="305" y="-99.8" font-family="Times,serif" font-size="14.00" fill="#000000">FirebaseModule</text>
</g>
<!-- FirebaseModule&#45;&gt;AppModule -->
<g id="edge6" class="edge">
<title>FirebaseModule&#45;&gt;AppModule</title>
<path fill="none" stroke="#000000" d="M305,-122.027C305,-138.3976 305,-160 305,-160 305,-160 434.02,-160 434.02,-160"/>
<polygon fill="#000000" stroke="#000000" points="434.0201,-163.5001 444.02,-160 434.02,-156.5001 434.0201,-163.5001"/>
</g>
<!-- ArticlesModule -->
<g id="node8" class="node">
<title>ArticlesModule</title>
<polygon fill="#8dd3c7" stroke="#000000" points="233.8627,-122 230.8627,-126 209.8627,-126 206.8627,-122 130.1373,-122 130.1373,-86 233.8627,-86 233.8627,-122"/>
<text text-anchor="middle" x="182" y="-99.8" font-family="Times,serif" font-size="14.00" fill="#000000">ArticlesModule</text>
</g>
<!-- ArticlesModule&#45;&gt;AppModule -->
<g id="edge7" class="edge">
<title>ArticlesModule&#45;&gt;AppModule</title>
<path fill="none" stroke="#000000" d="M182,-122.1061C182,-141.3391 182,-169 182,-169 182,-169 434.0493,-169 434.0493,-169"/>
<polygon fill="#000000" stroke="#000000" points="434.0493,-172.5001 444.0493,-169 434.0492,-165.5001 434.0493,-172.5001"/>
</g>
<!-- AuthModule -->
<g id="node9" class="node">
<title>AuthModule</title>
<polygon fill="#8dd3c7" stroke="#000000" points="111.5482,-122 108.5482,-126 87.5482,-126 84.5482,-122 24.4518,-122 24.4518,-86 111.5482,-86 111.5482,-122"/>
<text text-anchor="middle" x="68" y="-99.8" font-family="Times,serif" font-size="14.00" fill="#000000">AuthModule</text>
</g>
<!-- AuthModule&#45;&gt;AppModule -->
<g id="edge8" class="edge">
<title>AuthModule&#45;&gt;AppModule</title>
<path fill="none" stroke="#000000" d="M68,-122.2921C68,-144.2057 68,-178 68,-178 68,-178 434.0067,-178 434.0067,-178"/>
<polygon fill="#000000" stroke="#000000" points="434.0068,-181.5001 444.0067,-178 434.0067,-174.5001 434.0068,-181.5001"/>
</g>
</g>
</svg>
