<?xml version="1.0" encoding="UTF-8" standalone="no"?>
<!DOCTYPE svg PUBLIC "-//W3C//DTD SVG 1.1//EN"
 "http://www.w3.org/Graphics/SVG/1.1/DTD/svg11.dtd">
<!-- Generated by graphviz version 2.40.1 (20161225.0304)
 -->
<!-- Title: dependencies Pages: 1 -->
<svg width="540pt" height="211pt"
 viewBox="0.00 0.00 540.00 211.00" xmlns="http://www.w3.org/2000/svg" xmlns:xlink="http://www.w3.org/1999/xlink">
<g id="graph0" class="graph" transform="scale(1 1) rotate(0) translate(4 207)">
<title>dependencies</title>
<polygon fill="#ffffff" stroke="transparent" points="-4,4 -4,-207 536,-207 536,4 -4,4"/>
<text text-anchor="start" x="245.0091" y="-42.4" font-family="sans-serif" font-weight="bold" font-size="14.00" fill="#000000">Legend</text>
<polygon fill="#ffffb3" stroke="transparent" points="32,-10 32,-30 52,-30 52,-10 32,-10"/>
<text text-anchor="start" x="55.629" y="-15.4" font-family="sans-serif" font-size="14.00" fill="#000000"> &#160;Declarations</text>
<polygon fill="#8dd3c7" stroke="transparent" points="145,-10 145,-30 165,-30 165,-10 145,-10"/>
<text text-anchor="start" x="168.7251" y="-15.4" font-family="sans-serif" font-size="14.00" fill="#000000"> &#160;Module</text>
<polygon fill="#80b1d3" stroke="transparent" points="231,-10 231,-30 251,-30 251,-10 231,-10"/>
<text text-anchor="start" x="254.7812" y="-15.4" font-family="sans-serif" font-size="14.00" fill="#000000"> &#160;Bootstrap</text>
<polygon fill="#fdb462" stroke="transparent" points="328,-10 328,-30 348,-30 348,-10 328,-10"/>
<text text-anchor="start" x="351.6732" y="-15.4" font-family="sans-serif" font-size="14.00" fill="#000000"> &#160;Providers</text>
<polygon fill="#fb8072" stroke="transparent" points="424,-10 424,-30 444,-30 444,-10 424,-10"/>
<text text-anchor="start" x="447.7258" y="-15.4" font-family="sans-serif" font-size="14.00" fill="#000000"> &#160;Exports</text>
<g id="clust1" class="cluster">
<title>cluster_TestModule</title>
<polygon fill="none" stroke="#000000" stroke-dasharray="1,5" points="8,-70 8,-195 524,-195 524,-70 8,-70"/>
</g>
<g id="clust2" class="cluster">
<title>cluster_TestModule_declarations</title>
<polygon fill="none" stroke="#000000" points="16,-78 16,-130 516,-130 516,-78 16,-78"/>
</g>
<!-- MockLoadImageDirective -->
<g id="node1" class="node">
<title>MockLoadImageDirective</title>
<polygon fill="#ffffb3" stroke="#000000" points="508.4903,-122 343.5097,-122 343.5097,-86 508.4903,-86 508.4903,-122"/>
<text text-anchor="middle" x="426" y="-99.8" font-family="Times,serif" font-size="14.00" fill="#000000">MockLoadImageDirective</text>
</g>
<!-- TestModule -->
<g id="node4" class="node">
<title>TestModule</title>
<polygon fill="#8dd3c7" stroke="#000000" points="304.6529,-187 301.6529,-191 280.6529,-191 277.6529,-187 221.3471,-187 221.3471,-151 304.6529,-151 304.6529,-187"/>
<text text-anchor="middle" x="263" y="-164.8" font-family="Times,serif" font-size="14.00" fill="#000000">TestModule</text>
</g>
<!-- MockLoadImageDirective&#45;&gt;TestModule -->
<g id="edge1" class="edge">
<title>MockLoadImageDirective&#45;&gt;TestModule</title>
<path fill="none" stroke="#000000" d="M426,-122.1061C426,-141.3391 426,-169 426,-169 426,-169 314.9766,-169 314.9766,-169"/>
<polygon fill="#000000" stroke="#000000" points="314.9766,-165.5001 304.9766,-169 314.9765,-172.5001 314.9766,-165.5001"/>
</g>
<!-- MockPostDirective -->
<g id="node2" class="node">
<title>MockPostDirective</title>
<polygon fill="#ffffb3" stroke="#000000" points="325.3599,-122 200.6401,-122 200.6401,-86 325.3599,-86 325.3599,-122"/>
<text text-anchor="middle" x="263" y="-99.8" font-family="Times,serif" font-size="14.00" fill="#000000">MockPostDirective</text>
</g>
<!-- MockPostDirective&#45;&gt;TestModule -->
<g id="edge2" class="edge">
<title>MockPostDirective&#45;&gt;TestModule</title>
<path fill="none" stroke="#000000" d="M263,-122.1061C263,-122.1061 263,-140.991 263,-140.991"/>
<polygon fill="#000000" stroke="#000000" points="259.5001,-140.9909 263,-150.991 266.5001,-140.991 259.5001,-140.9909"/>
</g>
<!-- RouterLinkStubDirective -->
<g id="node3" class="node">
<title>RouterLinkStubDirective</title>
<polygon fill="#ffffb3" stroke="#000000" points="182.3019,-122 23.6981,-122 23.6981,-86 182.3019,-86 182.3019,-122"/>
<text text-anchor="middle" x="103" y="-99.8" font-family="Times,serif" font-size="14.00" fill="#000000">RouterLinkStubDirective</text>
</g>
<!-- RouterLinkStubDirective&#45;&gt;TestModule -->
<g id="edge3" class="edge">
<title>RouterLinkStubDirective&#45;&gt;TestModule</title>
<path fill="none" stroke="#000000" d="M103,-122.1061C103,-141.3391 103,-169 103,-169 103,-169 210.9619,-169 210.9619,-169"/>
<polygon fill="#000000" stroke="#000000" points="210.9619,-172.5001 220.9619,-169 210.9618,-165.5001 210.9619,-172.5001"/>
</g>
</g>
</svg>
