<?xml version="1.0" encoding="UTF-8" standalone="no"?>
<!DOCTYPE svg PUBLIC "-//W3C//DTD SVG 1.1//EN"
 "http://www.w3.org/Graphics/SVG/1.1/DTD/svg11.dtd">
<!-- Generated by graphviz version 2.40.1 (20161225.0304)
 -->
<!-- Title: dependencies Pages: 1 -->
<svg width="4256pt" height="428pt"
 viewBox="0.00 0.00 4256.00 428.00" xmlns="http://www.w3.org/2000/svg" xmlns:xlink="http://www.w3.org/1999/xlink">
<g id="graph0" class="graph" transform="scale(1 1) rotate(0) translate(4 424)">
<title>dependencies</title>
<polygon fill="#ffffff" stroke="transparent" points="-4,4 -4,-424 4252,-424 4252,4 -4,4"/>
<text text-anchor="start" x="2103.0091" y="-42.4" font-family="sans-serif" font-weight="bold" font-size="14.00" fill="#000000">Legend</text>
<polygon fill="#ffffb3" stroke="transparent" points="1890,-10 1890,-30 1910,-30 1910,-10 1890,-10"/>
<text text-anchor="start" x="1913.629" y="-15.4" font-family="sans-serif" font-size="14.00" fill="#000000"> &#160;Declarations</text>
<polygon fill="#8dd3c7" stroke="transparent" points="2003,-10 2003,-30 2023,-30 2023,-10 2003,-10"/>
<text text-anchor="start" x="2026.7251" y="-15.4" font-family="sans-serif" font-size="14.00" fill="#000000"> &#160;Module</text>
<polygon fill="#80b1d3" stroke="transparent" points="2089,-10 2089,-30 2109,-30 2109,-10 2089,-10"/>
<text text-anchor="start" x="2112.7812" y="-15.4" font-family="sans-serif" font-size="14.00" fill="#000000"> &#160;Bootstrap</text>
<polygon fill="#fdb462" stroke="transparent" points="2186,-10 2186,-30 2206,-30 2206,-10 2186,-10"/>
<text text-anchor="start" x="2209.6732" y="-15.4" font-family="sans-serif" font-size="14.00" fill="#000000"> &#160;Providers</text>
<polygon fill="#fb8072" stroke="transparent" points="2282,-10 2282,-30 2302,-30 2302,-10 2282,-10"/>
<text text-anchor="start" x="2305.7258" y="-15.4" font-family="sans-serif" font-size="14.00" fill="#000000"> &#160;Exports</text>
<g id="clust1" class="cluster">
<title>cluster_AppModule</title>
<polygon fill="none" stroke="#000000" stroke-dasharray="1,5" points="2122,-214 2122,-412 3149,-412 3149,-214 2122,-214"/>
</g>
<g id="clust2" class="cluster">
<title>cluster_AppModule_declarations</title>
<polygon fill="none" stroke="#000000" points="2743,-222 2743,-274 3141,-274 3141,-222 2743,-222"/>
</g>
<g id="clust6" class="cluster">
<title>cluster_AppModule_imports</title>
<polygon fill="none" stroke="#000000" points="2130,-222 2130,-274 2735,-274 2735,-222 2130,-222"/>
</g>
<g id="clust8" class="cluster">
<title>cluster_AppModule_bootstrap</title>
<polygon fill="none" stroke="#000000" points="2551,-352 2551,-404 2675,-404 2675,-352 2551,-352"/>
</g>
<g id="clust16" class="cluster">
<title>cluster_ArticlesModule</title>
<polygon fill="none" stroke="#000000" stroke-dasharray="1,5" points="3021,-138 3021,-206 3717,-206 3717,-138 3021,-138"/>
</g>
<g id="clust17" class="cluster">
<title>cluster_ArticlesModule_declarations</title>
<polygon fill="none" stroke="#000000" points="3029,-146 3029,-198 3225,-198 3225,-146 3029,-146"/>
</g>
<g id="clust19" class="cluster">
<title>cluster_ArticlesModule_imports</title>
<polygon fill="none" stroke="#000000" points="3607,-146 3607,-198 3709,-198 3709,-146 3607,-146"/>
</g>
<g id="clust20" class="cluster">
<title>cluster_ArticlesModule_exports</title>
<polygon fill="none" stroke="#000000" points="3233,-146 3233,-198 3433,-198 3433,-146 3233,-146"/>
</g>
<g id="clust22" class="cluster">
<title>cluster_ArticlesModule_providers</title>
<polygon fill="none" stroke="#000000" points="3441,-146 3441,-198 3599,-198 3599,-146 3441,-146"/>
</g>
<g id="clust23" class="cluster">
<title>cluster_AuthModule</title>
<polygon fill="none" stroke="#000000" stroke-dasharray="1,5" points="1608,-138 1608,-206 2317,-206 2317,-138 1608,-138"/>
</g>
<g id="clust24" class="cluster">
<title>cluster_AuthModule_declarations</title>
<polygon fill="none" stroke="#000000" points="2036,-146 2036,-198 2309,-198 2309,-146 2036,-146"/>
</g>
<g id="clust30" class="cluster">
<title>cluster_AuthModule_providers</title>
<polygon fill="none" stroke="#000000" points="1616,-146 1616,-198 2028,-198 2028,-146 1616,-146"/>
</g>
<g id="clust37" class="cluster">
<title>cluster_PostsModule</title>
<polygon fill="none" stroke="#000000" stroke-dasharray="1,5" points="8,-70 8,-282 1600,-282 1600,-70 8,-70"/>
</g>
<g id="clust38" class="cluster">
<title>cluster_PostsModule_declarations</title>
<polygon fill="none" stroke="#000000" points="318,-78 318,-130 1592,-130 1592,-78 318,-78"/>
</g>
<g id="clust48" class="cluster">
<title>cluster_PostsModule_imports</title>
<polygon fill="none" stroke="#000000" points="160,-78 160,-130 310,-130 310,-78 160,-78"/>
</g>
<g id="clust49" class="cluster">
<title>cluster_PostsModule_exports</title>
<polygon fill="none" stroke="#000000" points="780,-222 780,-274 1184,-274 1184,-222 780,-222"/>
</g>
<g id="clust51" class="cluster">
<title>cluster_PostsModule_providers</title>
<polygon fill="none" stroke="#000000" points="16,-78 16,-130 152,-130 152,-78 16,-78"/>
</g>
<g id="clust58" class="cluster">
<title>cluster_TestModule</title>
<polygon fill="none" stroke="#000000" stroke-dasharray="1,5" points="3725,-70 3725,-198 4240,-198 4240,-70 3725,-70"/>
</g>
<g id="clust59" class="cluster">
<title>cluster_TestModule_declarations</title>
<polygon fill="none" stroke="#000000" points="3733,-78 3733,-130 4232,-130 4232,-78 3733,-78"/>
</g>
<g id="clust73" class="cluster">
<title>cluster_UsersModule</title>
<polygon fill="none" stroke="#000000" stroke-dasharray="1,5" points="2325,-138 2325,-206 3013,-206 3013,-138 2325,-138"/>
</g>
<g id="clust74" class="cluster">
<title>cluster_UsersModule_declarations</title>
<polygon fill="none" stroke="#000000" points="2841,-146 2841,-198 3005,-198 3005,-146 2841,-146"/>
</g>
<g id="clust76" class="cluster">
<title>cluster_UsersModule_imports</title>
<polygon fill="none" stroke="#000000" points="2685,-146 2685,-198 2833,-198 2833,-146 2685,-146"/>
</g>
<g id="clust79" class="cluster">
<title>cluster_UsersModule_providers</title>
<polygon fill="none" stroke="#000000" points="2333,-146 2333,-198 2677,-198 2677,-146 2333,-146"/>
</g>
<g id="clust80" class="cluster">
<title>cluster_UtilsModule</title>
<polygon fill="none" stroke="#000000" stroke-dasharray="1,5" points="3220,-214 3220,-282 4194,-282 4194,-214 3220,-214"/>
</g>
<g id="clust81" class="cluster">
<title>cluster_UtilsModule_declarations</title>
<polygon fill="none" stroke="#000000" points="3716,-222 3716,-274 4186,-274 4186,-222 3716,-222"/>
</g>
<g id="clust86" class="cluster">
<title>cluster_UtilsModule_exports</title>
<polygon fill="none" stroke="#000000" points="3228,-222 3228,-274 3708,-274 3708,-222 3228,-222"/>
</g>
<!-- AppComponent -->
<g id="node1" class="node">
<title>AppComponent</title>
<polygon fill="#ffffb3" stroke="#000000" points="2996.9399,-266 2891.0601,-266 2891.0601,-230 2996.9399,-230 2996.9399,-266"/>
<text text-anchor="middle" x="2944" y="-243.8" font-family="Times,serif" font-size="14.00" fill="#000000">AppComponent</text>
</g>
<!-- AppModule -->
<g id="node4" class="node">
<title>AppModule</title>
<polygon fill="#8dd3c7" stroke="#000000" points="2654.6571,-331 2651.6571,-335 2630.6571,-335 2627.6571,-331 2571.3429,-331 2571.3429,-295 2654.6571,-295 2654.6571,-331"/>
<text text-anchor="middle" x="2613" y="-308.8" font-family="Times,serif" font-size="14.00" fill="#000000">AppModule</text>
</g>
<!-- AppComponent&#45;&gt;AppModule -->
<g id="edge1" class="edge">
<title>AppComponent&#45;&gt;AppModule</title>
<path fill="none" stroke="#000000" d="M2944,-266.1061C2944,-285.3391 2944,-313 2944,-313 2944,-313 2664.9214,-313 2664.9214,-313"/>
<polygon fill="#000000" stroke="#000000" points="2664.9214,-309.5001 2654.9214,-313 2664.9213,-316.5001 2664.9214,-309.5001"/>
</g>
<!-- HeaderComponent -->
<g id="node2" class="node">
<title>HeaderComponent</title>
<polygon fill="#ffffb3" stroke="#000000" points="2872.7437,-266 2751.2563,-266 2751.2563,-230 2872.7437,-230 2872.7437,-266"/>
<text text-anchor="middle" x="2812" y="-243.8" font-family="Times,serif" font-size="14.00" fill="#000000">HeaderComponent</text>
</g>
<!-- HeaderComponent&#45;&gt;AppModule -->
<g id="edge2" class="edge">
<title>HeaderComponent&#45;&gt;AppModule</title>
<path fill="none" stroke="#000000" d="M2812,-266.027C2812,-282.3976 2812,-304 2812,-304 2812,-304 2664.7169,-304 2664.7169,-304"/>
<polygon fill="#000000" stroke="#000000" points="2664.717,-300.5001 2654.7169,-304 2664.7169,-307.5001 2664.717,-300.5001"/>
</g>
<!-- FooterComponent -->
<g id="node3" class="node">
<title>FooterComponent</title>
<polygon fill="#ffffb3" stroke="#000000" points="3132.8809,-266 3015.1191,-266 3015.1191,-230 3132.8809,-230 3132.8809,-266"/>
<text text-anchor="middle" x="3074" y="-243.8" font-family="Times,serif" font-size="14.00" fill="#000000">FooterComponent</text>
</g>
<!-- FooterComponent&#45;&gt;AppModule -->
<g id="edge3" class="edge">
<title>FooterComponent&#45;&gt;AppModule</title>
<path fill="none" stroke="#000000" d="M3074,-266.2921C3074,-288.2057 3074,-322 3074,-322 3074,-322 2664.7237,-322 2664.7237,-322"/>
<polygon fill="#000000" stroke="#000000" points="2664.7238,-318.5001 2654.7237,-322 2664.7237,-325.5001 2664.7238,-318.5001"/>
</g>
<!-- AppComponent  -->
<g id="node10" class="node">
<title>AppComponent </title>
<polygon fill="#80b1d3" stroke="#000000" points="2667.439,-396 2558.561,-396 2558.561,-360 2667.439,-360 2667.439,-396"/>
<text text-anchor="middle" x="2613" y="-373.8" font-family="Times,serif" font-size="14.00" fill="#000000">AppComponent </text>
</g>
<!-- AppModule&#45;&gt;AppComponent  -->
<g id="edge9" class="edge">
<title>AppModule&#45;&gt;AppComponent </title>
<path fill="none" stroke="#000000" stroke-dasharray="1,5" d="M2613,-331.1061C2613,-331.1061 2613,-349.991 2613,-349.991"/>
<polygon fill="#000000" stroke="#000000" points="2609.5001,-349.9909 2613,-359.991 2616.5001,-349.991 2609.5001,-349.9909"/>
</g>
<!-- AppRoutingModule -->
<g id="node5" class="node">
<title>AppRoutingModule</title>
<polygon fill="#8dd3c7" stroke="#000000" points="2266.2744,-266 2263.2744,-270 2242.2744,-270 2239.2744,-266 2137.7256,-266 2137.7256,-230 2266.2744,-230 2266.2744,-266"/>
<text text-anchor="middle" x="2202" y="-243.8" font-family="Times,serif" font-size="14.00" fill="#000000">AppRoutingModule</text>
</g>
<!-- AppRoutingModule&#45;&gt;AppModule -->
<g id="edge4" class="edge">
<title>AppRoutingModule&#45;&gt;AppModule</title>
<path fill="none" stroke="#000000" d="M2202,-266.2921C2202,-288.2057 2202,-322 2202,-322 2202,-322 2561.3293,-322 2561.3293,-322"/>
<polygon fill="#000000" stroke="#000000" points="2561.3294,-325.5001 2571.3293,-322 2561.3293,-318.5001 2561.3294,-325.5001"/>
</g>
<!-- UsersModule -->
<g id="node6" class="node">
<title>UsersModule</title>
<polygon fill="#8dd3c7" stroke="#000000" points="2480.9218,-266 2477.9218,-270 2456.9218,-270 2453.9218,-266 2389.0782,-266 2389.0782,-230 2480.9218,-230 2480.9218,-266"/>
<text text-anchor="middle" x="2435" y="-243.8" font-family="Times,serif" font-size="14.00" fill="#000000">UsersModule</text>
</g>
<!-- UsersModule&#45;&gt;AppModule -->
<g id="edge5" class="edge">
<title>UsersModule&#45;&gt;AppModule</title>
<path fill="none" stroke="#000000" d="M2435,-266.027C2435,-282.3976 2435,-304 2435,-304 2435,-304 2561.2669,-304 2561.2669,-304"/>
<polygon fill="#000000" stroke="#000000" points="2561.2669,-307.5001 2571.2669,-304 2561.2669,-300.5001 2561.2669,-307.5001"/>
</g>
<!-- FirebaseModule -->
<g id="node7" class="node">
<title>FirebaseModule</title>
<polygon fill="#8dd3c7" stroke="#000000" points="2605.472,-266 2602.472,-270 2581.472,-270 2578.472,-266 2498.528,-266 2498.528,-230 2605.472,-230 2605.472,-266"/>
<text text-anchor="middle" x="2552" y="-243.8" font-family="Times,serif" font-size="14.00" fill="#000000">FirebaseModule</text>
</g>
<!-- FirebaseModule&#45;&gt;AppModule -->
<g id="edge6" class="edge">
<title>FirebaseModule&#45;&gt;AppModule</title>
<path fill="none" stroke="#000000" d="M2588.3289,-266.1061C2588.3289,-266.1061 2588.3289,-284.991 2588.3289,-284.991"/>
<polygon fill="#000000" stroke="#000000" points="2584.829,-284.9909 2588.3289,-294.991 2591.829,-284.991 2584.829,-284.9909"/>
</g>
<!-- ArticlesModule -->
<g id="node8" class="node">
<title>ArticlesModule</title>
<polygon fill="#8dd3c7" stroke="#000000" points="2726.8627,-266 2723.8627,-270 2702.8627,-270 2699.8627,-266 2623.1373,-266 2623.1373,-230 2726.8627,-230 2726.8627,-266"/>
<text text-anchor="middle" x="2675" y="-243.8" font-family="Times,serif" font-size="14.00" fill="#000000">ArticlesModule</text>
</g>
<!-- ArticlesModule&#45;&gt;AppModule -->
<g id="edge7" class="edge">
<title>ArticlesModule&#45;&gt;AppModule</title>
<path fill="none" stroke="#000000" d="M2638.9485,-266.1061C2638.9485,-266.1061 2638.9485,-284.991 2638.9485,-284.991"/>
<polygon fill="#000000" stroke="#000000" points="2635.4485,-284.9909 2638.9485,-294.991 2642.4485,-284.991 2635.4485,-284.9909"/>
</g>
<!-- ArticlesContainerComponent  -->
<g id="node13" class="node">
<title>ArticlesContainerComponent </title>
<polygon fill="#fb8072" stroke="#000000" points="3425.3531,-190 3240.6469,-190 3240.6469,-154 3425.3531,-154 3425.3531,-190"/>
<text text-anchor="middle" x="3333" y="-167.8" font-family="Times,serif" font-size="14.00" fill="#000000">ArticlesContainerComponent </text>
</g>
<!-- ArticlesModule&#45;&gt;ArticlesContainerComponent  -->
<g id="edge12" class="edge">
<title>ArticlesModule&#45;&gt;ArticlesContainerComponent </title>
<path fill="none" stroke="#000000" stroke-dasharray="5,2" d="M2704.6124,-229.8726C2704.6124,-219.2891 2704.6124,-208 2704.6124,-208 2704.6124,-208 3283.9814,-208 3283.9814,-208 3283.9814,-208 3283.9814,-200.4218 3283.9814,-200.4218"/>
<polygon fill="#000000" stroke="#000000" points="3287.4815,-200.4218 3283.9814,-190.4218 3280.4815,-200.4219 3287.4815,-200.4218"/>
</g>
<!-- AuthModule -->
<g id="node9" class="node">
<title>AuthModule</title>
<polygon fill="#8dd3c7" stroke="#000000" points="2371.5482,-266 2368.5482,-270 2347.5482,-270 2344.5482,-266 2284.4518,-266 2284.4518,-230 2371.5482,-230 2371.5482,-266"/>
<text text-anchor="middle" x="2328" y="-243.8" font-family="Times,serif" font-size="14.00" fill="#000000">AuthModule</text>
</g>
<!-- AuthModule&#45;&gt;AppModule -->
<g id="edge8" class="edge">
<title>AuthModule&#45;&gt;AppModule</title>
<path fill="none" stroke="#000000" d="M2328,-266.1061C2328,-285.3391 2328,-313 2328,-313 2328,-313 2561.2533,-313 2561.2533,-313"/>
<polygon fill="#000000" stroke="#000000" points="2561.2534,-316.5001 2571.2533,-313 2561.2533,-309.5001 2561.2534,-316.5001"/>
</g>
<!-- ArticlesContainerComponent -->
<g id="node11" class="node">
<title>ArticlesContainerComponent</title>
<polygon fill="#ffffb3" stroke="#000000" points="3217.3529,-190 3036.6471,-190 3036.6471,-154 3217.3529,-154 3217.3529,-190"/>
<text text-anchor="middle" x="3127" y="-167.8" font-family="Times,serif" font-size="14.00" fill="#000000">ArticlesContainerComponent</text>
</g>
<!-- ArticlesContainerComponent&#45;&gt;ArticlesModule -->
<g id="edge10" class="edge">
<title>ArticlesContainerComponent&#45;&gt;ArticlesModule</title>
<path fill="none" stroke="#000000" d="M3084.757,-190.0449C3084.757,-197.749 3084.757,-205 3084.757,-205 3084.757,-205 2710.1922,-205 2710.1922,-205 2710.1922,-205 2710.1922,-219.5146 2710.1922,-219.5146"/>
<polygon fill="#000000" stroke="#000000" points="2706.6922,-219.5145 2710.1922,-229.5146 2713.6922,-219.5146 2706.6922,-219.5145"/>
</g>
<!-- UtilsModule -->
<g id="node12" class="node">
<title>UtilsModule</title>
<polygon fill="#8dd3c7" stroke="#000000" points="3701.2731,-190 3698.2731,-194 3677.2731,-194 3674.2731,-190 3614.7269,-190 3614.7269,-154 3701.2731,-154 3701.2731,-190"/>
<text text-anchor="middle" x="3658" y="-167.8" font-family="Times,serif" font-size="14.00" fill="#000000">UtilsModule</text>
</g>
<!-- UtilsModule&#45;&gt;ArticlesModule -->
<g id="edge11" class="edge">
<title>UtilsModule&#45;&gt;ArticlesModule</title>
<path fill="none" stroke="#000000" d="M3639.0926,-190.1025C3639.0926,-201.0859 3639.0926,-213 3639.0926,-213 3639.0926,-213 2721.3516,-213 2721.3516,-213 2721.3516,-213 2721.3516,-219.68 2721.3516,-219.68"/>
<polygon fill="#000000" stroke="#000000" points="2717.8517,-219.6799 2721.3516,-229.68 2724.8517,-219.68 2717.8517,-219.6799"/>
</g>
<!-- PostsModule -->
<g id="node29" class="node">
<title>PostsModule</title>
<polygon fill="#8dd3c7" stroke="#000000" points="1033.6123,-190 1030.6123,-194 1009.6123,-194 1006.6123,-190 944.3877,-190 944.3877,-154 1033.6123,-154 1033.6123,-190"/>
<text text-anchor="middle" x="989" y="-167.8" font-family="Times,serif" font-size="14.00" fill="#000000">PostsModule</text>
</g>
<!-- UtilsModule&#45;&gt;PostsModule -->
<g id="edge28" class="edge">
<title>UtilsModule&#45;&gt;PostsModule</title>
<path fill="none" stroke="#000000" d="M3626.8531,-190.08C3626.8531,-191.8464 3626.8531,-193 3626.8531,-193 3626.8531,-193 989,-193 989,-193 989,-193 989,-192.708 989,-192.708"/>
<polygon fill="#000000" stroke="#000000" points="992.5004,-200.0799 989,-190.08 985.5004,-200.0802 992.5004,-200.0799"/>
</g>
<!-- LoadImageComponent  -->
<g id="node46" class="node">
<title>LoadImageComponent </title>
<polygon fill="#fb8072" stroke="#000000" points="3700.0806,-266 3551.9194,-266 3551.9194,-230 3700.0806,-230 3700.0806,-266"/>
<text text-anchor="middle" x="3626" y="-243.8" font-family="Times,serif" font-size="14.00" fill="#000000">LoadImageComponent </text>
</g>
<!-- UtilsModule&#45;&gt;LoadImageComponent  -->
<g id="edge45" class="edge">
<title>UtilsModule&#45;&gt;LoadImageComponent </title>
<path fill="none" stroke="#000000" stroke-dasharray="5,2" d="M3675.811,-190.0109C3675.811,-190.0109 3675.811,-219.855 3675.811,-219.855"/>
<polygon fill="#000000" stroke="#000000" points="3672.3111,-219.8549 3675.811,-229.855 3679.3111,-219.855 3672.3111,-219.8549"/>
</g>
<!-- PaginationComponent  -->
<g id="node47" class="node">
<title>PaginationComponent </title>
<polygon fill="#fb8072" stroke="#000000" points="3533.2163,-266 3388.7837,-266 3388.7837,-230 3533.2163,-230 3533.2163,-266"/>
<text text-anchor="middle" x="3461" y="-243.8" font-family="Times,serif" font-size="14.00" fill="#000000">PaginationComponent </text>
</g>
<!-- UtilsModule&#45;&gt;PaginationComponent  -->
<g id="edge46" class="edge">
<title>UtilsModule&#45;&gt;PaginationComponent </title>
<path fill="none" stroke="#000000" stroke-dasharray="5,2" d="M3663.5715,-190.027C3663.5715,-206.3976 3663.5715,-228 3663.5715,-228 3663.5715,-228 3505.386,-228 3505.386,-228 3505.386,-228 3505.386,-228.1846 3505.386,-228.1846"/>
<polygon fill="#000000" stroke="#000000" points="3501.8866,-219.8455 3505.386,-229.8457 3508.8866,-219.8459 3501.8866,-219.8455"/>
</g>
<!-- CarouselComponent  -->
<g id="node48" class="node">
<title>CarouselComponent </title>
<polygon fill="#fb8072" stroke="#000000" points="3370.0946,-266 3235.9054,-266 3235.9054,-230 3370.0946,-230 3370.0946,-266"/>
<text text-anchor="middle" x="3303" y="-243.8" font-family="Times,serif" font-size="14.00" fill="#000000">CarouselComponent </text>
</g>
<!-- UtilsModule&#45;&gt;CarouselComponent  -->
<g id="edge47" class="edge">
<title>UtilsModule&#45;&gt;CarouselComponent </title>
<path fill="none" stroke="#000000" stroke-dasharray="5,2" d="M3651.3321,-190.4854C3651.3321,-202.1399 3651.3321,-215 3651.3321,-215 3651.3321,-215 3327.1392,-215 3327.1392,-215 3327.1392,-215 3327.1392,-219.9551 3327.1392,-219.9551"/>
<polygon fill="#000000" stroke="#000000" points="3323.6393,-219.9551 3327.1392,-229.9551 3330.6393,-219.9552 3323.6393,-219.9551"/>
</g>
<!-- ArticlesService -->
<g id="node14" class="node">
<title>ArticlesService</title>
<ellipse fill="#fdb462" stroke="#000000" cx="3520" cy="-172" rx="70.6162" ry="18"/>
<text text-anchor="middle" x="3520" y="-167.8" font-family="Times,serif" font-size="14.00" fill="#000000">ArticlesService</text>
</g>
<!-- ArticlesService&#45;&gt;ArticlesModule -->
<g id="edge13" class="edge">
<title>ArticlesService&#45;&gt;ArticlesModule</title>
<path fill="none" stroke="#000000" d="M3477.414,-186.5831C3477.414,-197.2993 3477.414,-210 3477.414,-210 3477.414,-210 2715.7719,-210 2715.7719,-210 2715.7719,-210 2715.7719,-219.8903 2715.7719,-219.8903"/>
<polygon fill="#000000" stroke="#000000" points="2712.272,-219.8903 2715.7719,-229.8903 2719.272,-219.8904 2712.272,-219.8903"/>
</g>
<!-- SigninComponent -->
<g id="node15" class="node">
<title>SigninComponent</title>
<polygon fill="#ffffb3" stroke="#000000" points="2300.8962,-190 2183.1038,-190 2183.1038,-154 2300.8962,-154 2300.8962,-190"/>
<text text-anchor="middle" x="2242" y="-167.8" font-family="Times,serif" font-size="14.00" fill="#000000">SigninComponent</text>
</g>
<!-- SigninComponent&#45;&gt;AuthModule -->
<g id="edge14" class="edge">
<title>SigninComponent&#45;&gt;AuthModule</title>
<path fill="none" stroke="#000000" d="M2298.1612,-190.0109C2298.1612,-190.0109 2298.1612,-219.855 2298.1612,-219.855"/>
<polygon fill="#000000" stroke="#000000" points="2294.6613,-219.8549 2298.1612,-229.855 2301.6613,-219.855 2294.6613,-219.8549"/>
</g>
<!-- SignupComponent -->
<g id="node16" class="node">
<title>SignupComponent</title>
<polygon fill="#ffffb3" stroke="#000000" points="2165.5056,-190 2044.4944,-190 2044.4944,-154 2165.5056,-154 2165.5056,-190"/>
<text text-anchor="middle" x="2105" y="-167.8" font-family="Times,serif" font-size="14.00" fill="#000000">SignupComponent</text>
</g>
<!-- SignupComponent&#45;&gt;AuthModule -->
<g id="edge15" class="edge">
<title>SignupComponent&#45;&gt;AuthModule</title>
<path fill="none" stroke="#000000" d="M2151.5579,-190.1804C2151.5579,-203.0382 2151.5579,-218 2151.5579,-218 2151.5579,-218 2295.3742,-218 2295.3742,-218 2295.3742,-218 2295.3742,-219.8568 2295.3742,-219.8568"/>
<polygon fill="#000000" stroke="#000000" points="2291.8743,-219.8568 2295.3742,-229.8568 2298.8743,-219.8568 2291.8743,-219.8568"/>
</g>
<!-- AuthService -->
<g id="node17" class="node">
<title>AuthService</title>
<ellipse fill="#fdb462" stroke="#000000" cx="1961" cy="-172" rx="59.1083" ry="18"/>
<text text-anchor="middle" x="1961" y="-167.8" font-family="Times,serif" font-size="14.00" fill="#000000">AuthService</text>
</g>
<!-- AuthService&#45;&gt;AuthModule -->
<g id="edge16" class="edge">
<title>AuthService&#45;&gt;AuthModule</title>
<path fill="none" stroke="#000000" d="M1961,-190.1467C1961,-203.7395 1961,-220 1961,-220 1961,-220 2292.5873,-220 2292.5873,-220 2292.5873,-220 2292.5873,-220.9793 2292.5873,-220.9793"/>
<polygon fill="#000000" stroke="#000000" points="2289.0874,-219.793 2292.5873,-229.793 2296.0874,-219.7931 2289.0874,-219.793"/>
</g>
<!-- AuthGuard -->
<g id="node18" class="node">
<title>AuthGuard</title>
<ellipse fill="#fdb462" stroke="#000000" cx="1829" cy="-172" rx="54.4566" ry="18"/>
<text text-anchor="middle" x="1829" y="-167.8" font-family="Times,serif" font-size="14.00" fill="#000000">AuthGuard</text>
</g>
<!-- AuthGuard&#45;&gt;AuthModule -->
<g id="edge17" class="edge">
<title>AuthGuard&#45;&gt;AuthModule</title>
<path fill="none" stroke="#000000" d="M1829,-190.1243C1829,-204.7832 1829,-223 1829,-223 1829,-223 2289.8004,-223 2289.8004,-223 2289.8004,-223 2289.8004,-223.6831 2289.8004,-223.6831"/>
<polygon fill="#000000" stroke="#000000" points="2286.3005,-219.8313 2289.8004,-229.8314 2293.3005,-219.8314 2286.3005,-219.8313"/>
</g>
<!-- UnAuthGuard -->
<g id="node19" class="node">
<title>UnAuthGuard</title>
<ellipse fill="#fdb462" stroke="#000000" cx="1690" cy="-172" rx="66.0569" ry="18"/>
<text text-anchor="middle" x="1690" y="-167.8" font-family="Times,serif" font-size="14.00" fill="#000000">UnAuthGuard</text>
</g>
<!-- UnAuthGuard&#45;&gt;AuthModule -->
<g id="edge18" class="edge">
<title>UnAuthGuard&#45;&gt;AuthModule</title>
<path fill="none" stroke="#000000" d="M1690,-190.2396C1690,-205.5706 1690,-225 1690,-225 1690,-225 2287.0134,-225 2287.0134,-225 2287.0134,-225 2287.0134,-225.4878 2287.0134,-225.4878"/>
<polygon fill="#000000" stroke="#000000" points="2283.5137,-219.8776 2287.0134,-229.8777 2290.5137,-219.8778 2283.5137,-219.8776"/>
</g>
<!-- PostsComponent -->
<g id="node20" class="node">
<title>PostsComponent</title>
<polygon fill="#ffffb3" stroke="#000000" points="1447.3948,-122 1336.6052,-122 1336.6052,-86 1447.3948,-86 1447.3948,-122"/>
<text text-anchor="middle" x="1392" y="-99.8" font-family="Times,serif" font-size="14.00" fill="#000000">PostsComponent</text>
</g>
<!-- PostsComponent&#45;&gt;PostsModule -->
<g id="edge19" class="edge">
<title>PostsComponent&#45;&gt;PostsModule</title>
<path fill="none" stroke="#000000" d="M1392,-122.2228C1392,-142.3652 1392,-172 1392,-172 1392,-172 1043.6678,-172 1043.6678,-172"/>
<polygon fill="#000000" stroke="#000000" points="1043.6679,-168.5001 1033.6678,-172 1043.6678,-175.5001 1043.6679,-168.5001"/>
</g>
<!-- PostComponent -->
<g id="node21" class="node">
<title>PostComponent</title>
<polygon fill="#ffffb3" stroke="#000000" points="1318.9512,-122 1213.0488,-122 1213.0488,-86 1318.9512,-86 1318.9512,-122"/>
<text text-anchor="middle" x="1266" y="-99.8" font-family="Times,serif" font-size="14.00" fill="#000000">PostComponent</text>
</g>
<!-- PostComponent&#45;&gt;PostsModule -->
<g id="edge20" class="edge">
<title>PostComponent&#45;&gt;PostsModule</title>
<path fill="none" stroke="#000000" d="M1266,-122.2667C1266,-140.5552 1266,-166 1266,-166 1266,-166 1043.8127,-166 1043.8127,-166"/>
<polygon fill="#000000" stroke="#000000" points="1043.8127,-162.5001 1033.8127,-166 1043.8127,-169.5001 1043.8127,-162.5001"/>
</g>
<!-- PostnewadComponent -->
<g id="node22" class="node">
<title>PostnewadComponent</title>
<polygon fill="#ffffb3" stroke="#000000" points="1194.986,-122 1053.014,-122 1053.014,-86 1194.986,-86 1194.986,-122"/>
<text text-anchor="middle" x="1124" y="-99.8" font-family="Times,serif" font-size="14.00" fill="#000000">PostnewadComponent</text>
</g>
<!-- PostnewadComponent&#45;&gt;PostsModule -->
<g id="edge21" class="edge">
<title>PostnewadComponent&#45;&gt;PostsModule</title>
<path fill="none" stroke="#000000" d="M1058.348,-122.027C1058.348,-138.3976 1058.348,-160 1058.348,-160 1058.348,-160 1043.7032,-160 1043.7032,-160"/>
<polygon fill="#000000" stroke="#000000" points="1043.7033,-156.5001 1033.7032,-160 1043.7032,-163.5001 1043.7033,-156.5001"/>
</g>
<!-- NewPostPipe -->
<g id="node23" class="node">
<title>NewPostPipe</title>
<polygon fill="#ffffb3" stroke="#000000" points="1034.9344,-122 943.0656,-122 943.0656,-86 1034.9344,-86 1034.9344,-122"/>
<text text-anchor="middle" x="989" y="-99.8" font-family="Times,serif" font-size="14.00" fill="#000000">NewPostPipe</text>
</g>
<!-- NewPostPipe&#45;&gt;PostsModule -->
<g id="edge22" class="edge">
<title>NewPostPipe&#45;&gt;PostsModule</title>
<path fill="none" stroke="#000000" d="M989,-122.2228C989,-122.2228 989,-143.7269 989,-143.7269"/>
<polygon fill="#000000" stroke="#000000" points="985.5001,-143.7269 989,-153.7269 992.5001,-143.727 985.5001,-143.7269"/>
</g>
<!-- PostDetailsComponent -->
<g id="node24" class="node">
<title>PostDetailsComponent</title>
<polygon fill="#ffffb3" stroke="#000000" points="925.6024,-122 780.3976,-122 780.3976,-86 925.6024,-86 925.6024,-122"/>
<text text-anchor="middle" x="853" y="-99.8" font-family="Times,serif" font-size="14.00" fill="#000000">PostDetailsComponent</text>
</g>
<!-- PostDetailsComponent&#45;&gt;PostsModule -->
<g id="edge23" class="edge">
<title>PostDetailsComponent&#45;&gt;PostsModule</title>
<path fill="none" stroke="#000000" d="M919.9311,-122.0091C919.9311,-138.0494 919.9311,-159 919.9311,-159 919.9311,-159 934.088,-159 934.088,-159"/>
<polygon fill="#000000" stroke="#000000" points="934.0881,-162.5001 944.088,-159 934.088,-155.5001 934.0881,-162.5001"/>
</g>
<!-- MostpoluarComponent -->
<g id="node25" class="node">
<title>MostpoluarComponent</title>
<polygon fill="#ffffb3" stroke="#000000" points="762.8781,-122 617.1219,-122 617.1219,-86 762.8781,-86 762.8781,-122"/>
<text text-anchor="middle" x="690" y="-99.8" font-family="Times,serif" font-size="14.00" fill="#000000">MostpoluarComponent</text>
</g>
<!-- MostpoluarComponent&#45;&gt;PostsModule -->
<g id="edge24" class="edge">
<title>MostpoluarComponent&#45;&gt;PostsModule</title>
<path fill="none" stroke="#000000" d="M690,-122.0225C690,-139.3734 690,-163 690,-163 690,-163 934.2367,-163 934.2367,-163"/>
<polygon fill="#000000" stroke="#000000" points="934.2367,-166.5001 944.2367,-163 934.2366,-159.5001 934.2367,-166.5001"/>
</g>
<!-- PostEditComponent -->
<g id="node26" class="node">
<title>PostEditComponent</title>
<polygon fill="#ffffb3" stroke="#000000" points="599.2842,-122 470.7158,-122 470.7158,-86 599.2842,-86 599.2842,-122"/>
<text text-anchor="middle" x="535" y="-99.8" font-family="Times,serif" font-size="14.00" fill="#000000">PostEditComponent</text>
</g>
<!-- PostEditComponent&#45;&gt;PostsModule -->
<g id="edge25" class="edge">
<title>PostEditComponent&#45;&gt;PostsModule</title>
<path fill="none" stroke="#000000" d="M535,-122.1686C535,-141.0898 535,-168 535,-168 535,-168 934.2262,-168 934.2262,-168"/>
<polygon fill="#000000" stroke="#000000" points="934.2263,-171.5001 944.2262,-168 934.2262,-164.5001 934.2263,-171.5001"/>
</g>
<!-- RemoveSpacesPipe -->
<g id="node27" class="node">
<title>RemoveSpacesPipe</title>
<polygon fill="#ffffb3" stroke="#000000" points="452.4159,-122 325.5841,-122 325.5841,-86 452.4159,-86 452.4159,-122"/>
<text text-anchor="middle" x="389" y="-99.8" font-family="Times,serif" font-size="14.00" fill="#000000">RemoveSpacesPipe</text>
</g>
<!-- RemoveSpacesPipe&#45;&gt;PostsModule -->
<g id="edge26" class="edge">
<title>RemoveSpacesPipe&#45;&gt;PostsModule</title>
<path fill="none" stroke="#000000" d="M389,-122.2228C389,-142.3652 389,-172 389,-172 389,-172 934.3927,-172 934.3927,-172"/>
<polygon fill="#000000" stroke="#000000" points="934.3927,-175.5001 944.3927,-172 934.3926,-168.5001 934.3927,-175.5001"/>
</g>
<!-- FormatEmptyPipe -->
<g id="node28" class="node">
<title>FormatEmptyPipe</title>
<polygon fill="#ffffb3" stroke="#000000" points="1584.1611,-122 1465.8389,-122 1465.8389,-86 1584.1611,-86 1584.1611,-122"/>
<text text-anchor="middle" x="1525" y="-99.8" font-family="Times,serif" font-size="14.00" fill="#000000">FormatEmptyPipe</text>
</g>
<!-- FormatEmptyPipe&#45;&gt;PostsModule -->
<g id="edge27" class="edge">
<title>FormatEmptyPipe&#45;&gt;PostsModule</title>
<path fill="none" stroke="#000000" d="M1525,-122.2921C1525,-144.2057 1525,-178 1525,-178 1525,-178 1043.7771,-178 1043.7771,-178"/>
<polygon fill="#000000" stroke="#000000" points="1043.7772,-174.5001 1033.7771,-178 1043.7771,-181.5001 1043.7772,-174.5001"/>
</g>
<!-- PostsModule&#45;&gt;UsersModule -->
<g id="edge39" class="edge">
<title>PostsModule&#45;&gt;UsersModule</title>
<path fill="none" stroke="#000000" d="M1011.2781,-190.1223C1011.2781,-192.9729 1011.2781,-195 1011.2781,-195 1011.2781,-195 2414.5184,-195 2414.5184,-195 2414.5184,-195 2414.5184,-219.7604 2414.5184,-219.7604"/>
<polygon fill="#000000" stroke="#000000" points="2411.0185,-219.7604 2414.5184,-229.7604 2418.0185,-219.7604 2411.0185,-219.7604"/>
</g>
<!-- MostpoluarComponent  -->
<g id="node31" class="node">
<title>MostpoluarComponent </title>
<polygon fill="#fb8072" stroke="#000000" points="1063.8785,-266 914.1215,-266 914.1215,-230 1063.8785,-230 1063.8785,-266"/>
<text text-anchor="middle" x="989" y="-243.8" font-family="Times,serif" font-size="14.00" fill="#000000">MostpoluarComponent </text>
</g>
<!-- PostsModule&#45;&gt;MostpoluarComponent  -->
<g id="edge30" class="edge">
<title>PostsModule&#45;&gt;MostpoluarComponent </title>
<path fill="none" stroke="#000000" stroke-dasharray="5,2" d="M966.722,-190.0109C966.722,-190.0109 966.722,-219.855 966.722,-219.855"/>
<polygon fill="#000000" stroke="#000000" points="963.222,-219.8549 966.722,-229.855 970.222,-219.855 963.222,-219.8549"/>
</g>
<!-- PostComponent  -->
<g id="node32" class="node">
<title>PostComponent </title>
<polygon fill="#fb8072" stroke="#000000" points="896.4502,-266 787.5498,-266 787.5498,-230 896.4502,-230 896.4502,-266"/>
<text text-anchor="middle" x="842" y="-243.8" font-family="Times,serif" font-size="14.00" fill="#000000">PostComponent </text>
</g>
<!-- PostsModule&#45;&gt;PostComponent  -->
<g id="edge31" class="edge">
<title>PostsModule&#45;&gt;PostComponent </title>
<path fill="none" stroke="#000000" stroke-dasharray="5,2" d="M944.0964,-186C900.8664,-186 842,-186 842,-186 842,-186 842,-219.7333 842,-219.7333"/>
<polygon fill="#000000" stroke="#000000" points="838.5001,-219.7333 842,-229.7333 845.5001,-219.7333 838.5001,-219.7333"/>
</g>
<!-- NewPostPipe  -->
<g id="node33" class="node">
<title>NewPostPipe </title>
<polygon fill="#fb8072" stroke="#000000" points="1176.4334,-266 1081.5666,-266 1081.5666,-230 1176.4334,-230 1176.4334,-266"/>
<text text-anchor="middle" x="1129" y="-243.8" font-family="Times,serif" font-size="14.00" fill="#000000">NewPostPipe </text>
</g>
<!-- PostsModule&#45;&gt;NewPostPipe  -->
<g id="edge32" class="edge">
<title>PostsModule&#45;&gt;NewPostPipe </title>
<path fill="none" stroke="#000000" stroke-dasharray="5,2" d="M1033.6818,-184C1074.6538,-184 1129,-184 1129,-184 1129,-184 1129,-219.8314 1129,-219.8314"/>
<polygon fill="#000000" stroke="#000000" points="1125.5001,-219.8313 1129,-229.8314 1132.5001,-219.8314 1125.5001,-219.8313"/>
</g>
<!-- PostsRoutingModule -->
<g id="node30" class="node">
<title>PostsRoutingModule</title>
<polygon fill="#8dd3c7" stroke="#000000" points="302.2302,-122 299.2302,-126 278.2302,-126 275.2302,-122 167.7698,-122 167.7698,-86 302.2302,-86 302.2302,-122"/>
<text text-anchor="middle" x="235" y="-99.8" font-family="Times,serif" font-size="14.00" fill="#000000">PostsRoutingModule</text>
</g>
<!-- PostsRoutingModule&#45;&gt;PostsModule -->
<g id="edge29" class="edge">
<title>PostsRoutingModule&#45;&gt;PostsModule</title>
<path fill="none" stroke="#000000" d="M235,-122.0449C235,-143.6623 235,-177 235,-177 235,-177 934.3707,-177 934.3707,-177"/>
<polygon fill="#000000" stroke="#000000" points="934.3708,-180.5001 944.3707,-177 934.3707,-173.5001 934.3708,-180.5001"/>
</g>
<!-- PostsService -->
<g id="node34" class="node">
<title>PostsService</title>
<ellipse fill="#fdb462" stroke="#000000" cx="84" cy="-104" rx="60.2672" ry="18"/>
<text text-anchor="middle" x="84" y="-99.8" font-family="Times,serif" font-size="14.00" fill="#000000">PostsService</text>
</g>
<!-- PostsService&#45;&gt;PostsModule -->
<g id="edge33" class="edge">
<title>PostsService&#45;&gt;PostsModule</title>
<path fill="none" stroke="#000000" d="M84,-122.2479C84,-145.0179 84,-181 84,-181 84,-181 934.4296,-181 934.4296,-181"/>
<polygon fill="#000000" stroke="#000000" points="934.4296,-184.5001 944.4296,-181 934.4296,-177.5001 934.4296,-184.5001"/>
</g>
<!-- MockLoadImageDirective -->
<g id="node35" class="node">
<title>MockLoadImageDirective</title>
<polygon fill="#ffffb3" stroke="#000000" points="4048.4903,-122 3883.5097,-122 3883.5097,-86 4048.4903,-86 4048.4903,-122"/>
<text text-anchor="middle" x="3966" y="-99.8" font-family="Times,serif" font-size="14.00" fill="#000000">MockLoadImageDirective</text>
</g>
<!-- TestModule -->
<g id="node38" class="node">
<title>TestModule</title>
<polygon fill="#8dd3c7" stroke="#000000" points="4007.6529,-190 4004.6529,-194 3983.6529,-194 3980.6529,-190 3924.3471,-190 3924.3471,-154 4007.6529,-154 4007.6529,-190"/>
<text text-anchor="middle" x="3966" y="-167.8" font-family="Times,serif" font-size="14.00" fill="#000000">TestModule</text>
</g>
<!-- MockLoadImageDirective&#45;&gt;TestModule -->
<g id="edge34" class="edge">
<title>MockLoadImageDirective&#45;&gt;TestModule</title>
<path fill="none" stroke="#000000" d="M3966,-122.2228C3966,-122.2228 3966,-143.7269 3966,-143.7269"/>
<polygon fill="#000000" stroke="#000000" points="3962.5001,-143.7269 3966,-153.7269 3969.5001,-143.727 3962.5001,-143.7269"/>
</g>
<!-- MockPostDirective -->
<g id="node36" class="node">
<title>MockPostDirective</title>
<polygon fill="#ffffb3" stroke="#000000" points="3865.3599,-122 3740.6401,-122 3740.6401,-86 3865.3599,-86 3865.3599,-122"/>
<text text-anchor="middle" x="3803" y="-99.8" font-family="Times,serif" font-size="14.00" fill="#000000">MockPostDirective</text>
</g>
<!-- MockPostDirective&#45;&gt;TestModule -->
<g id="edge35" class="edge">
<title>MockPostDirective&#45;&gt;TestModule</title>
<path fill="none" stroke="#000000" d="M3860.4885,-122.0225C3860.4885,-139.3734 3860.4885,-163 3860.4885,-163 3860.4885,-163 3914.299,-163 3914.299,-163"/>
<polygon fill="#000000" stroke="#000000" points="3914.2991,-166.5001 3924.299,-163 3914.299,-159.5001 3914.2991,-166.5001"/>
</g>
<!-- RouterLinkStubDirective -->
<g id="node37" class="node">
<title>RouterLinkStubDirective</title>
<polygon fill="#ffffb3" stroke="#000000" points="4224.3019,-122 4065.6981,-122 4065.6981,-86 4224.3019,-86 4224.3019,-122"/>
<text text-anchor="middle" x="4145" y="-99.8" font-family="Times,serif" font-size="14.00" fill="#000000">RouterLinkStubDirective</text>
</g>
<!-- RouterLinkStubDirective&#45;&gt;TestModule -->
<g id="edge36" class="edge">
<title>RouterLinkStubDirective&#45;&gt;TestModule</title>
<path fill="none" stroke="#000000" d="M4121.6946,-122.2228C4121.6946,-142.3652 4121.6946,-172 4121.6946,-172 4121.6946,-172 4017.7233,-172 4017.7233,-172"/>
<polygon fill="#000000" stroke="#000000" points="4017.7233,-168.5001 4007.7233,-172 4017.7233,-175.5001 4017.7233,-168.5001"/>
</g>
<!-- UsersDetailComponent -->
<g id="node39" class="node">
<title>UsersDetailComponent</title>
<polygon fill="#ffffb3" stroke="#000000" points="2996.9116,-190 2849.0884,-190 2849.0884,-154 2996.9116,-154 2996.9116,-190"/>
<text text-anchor="middle" x="2923" y="-167.8" font-family="Times,serif" font-size="14.00" fill="#000000">UsersDetailComponent</text>
</g>
<!-- UsersDetailComponent&#45;&gt;UsersModule -->
<g id="edge37" class="edge">
<title>UsersDetailComponent&#45;&gt;UsersModule</title>
<path fill="none" stroke="#000000" d="M2861.0831,-190.0328C2861.0831,-196.8526 2861.0831,-203 2861.0831,-203 2861.0831,-203 2475.4656,-203 2475.4656,-203 2475.4656,-203 2475.4656,-219.9561 2475.4656,-219.9561"/>
<polygon fill="#000000" stroke="#000000" points="2471.9657,-219.956 2475.4656,-229.9561 2478.9657,-219.9561 2471.9657,-219.956"/>
</g>
<!-- UserRoutingModule -->
<g id="node40" class="node">
<title>UserRoutingModule</title>
<polygon fill="#8dd3c7" stroke="#000000" points="2824.594,-190 2821.594,-194 2800.594,-194 2797.594,-190 2693.406,-190 2693.406,-154 2824.594,-154 2824.594,-190"/>
<text text-anchor="middle" x="2759" y="-167.8" font-family="Times,serif" font-size="14.00" fill="#000000">UserRoutingModule</text>
</g>
<!-- UserRoutingModule&#45;&gt;UsersModule -->
<g id="edge38" class="edge">
<title>UserRoutingModule&#45;&gt;UsersModule</title>
<path fill="none" stroke="#000000" d="M2699.0327,-190.207C2699.0327,-195.5549 2699.0327,-200 2699.0327,-200 2699.0327,-200 2470.2208,-200 2470.2208,-200 2470.2208,-200 2470.2208,-219.8533 2470.2208,-219.8533"/>
<polygon fill="#000000" stroke="#000000" points="2466.7209,-219.8532 2470.2208,-229.8533 2473.7209,-219.8533 2466.7209,-219.8532"/>
</g>
<!-- UserResolverService -->
<g id="node41" class="node">
<title>UserResolverService</title>
<ellipse fill="#fdb462" stroke="#000000" cx="2576" cy="-172" rx="92.59" ry="18"/>
<text text-anchor="middle" x="2576" y="-167.8" font-family="Times,serif" font-size="14.00" fill="#000000">UserResolverService</text>
</g>
<!-- UserResolverService&#45;&gt;UsersModule -->
<g id="edge40" class="edge">
<title>UserResolverService&#45;&gt;UsersModule</title>
<path fill="none" stroke="#000000" d="M2490.9845,-179.2872C2490.9845,-198.3094 2490.9845,-248 2490.9845,-248 2490.9845,-248 2489.9577,-248 2489.9577,-248"/>
<polygon fill="#000000" stroke="#000000" points="2490.7161,-244.5001 2480.7161,-248 2490.716,-251.5001 2490.7161,-244.5001"/>
</g>
<!-- UsersService -->
<g id="node42" class="node">
<title>UsersService</title>
<ellipse fill="#fdb462" stroke="#000000" cx="2403" cy="-172" rx="61.9519" ry="18"/>
<text text-anchor="middle" x="2403" y="-167.8" font-family="Times,serif" font-size="14.00" fill="#000000">UsersService</text>
</g>
<!-- UsersService&#45;&gt;UsersModule -->
<g id="edge41" class="edge">
<title>UsersService&#45;&gt;UsersModule</title>
<path fill="none" stroke="#000000" d="M2439.7472,-186.6536C2439.7472,-186.6536 2439.7472,-219.9047 2439.7472,-219.9047"/>
<polygon fill="#000000" stroke="#000000" points="2436.2473,-219.9047 2439.7472,-229.9047 2443.2473,-219.9048 2436.2473,-219.9047"/>
</g>
<!-- LoadImageComponent -->
<g id="node43" class="node">
<title>LoadImageComponent</title>
<polygon fill="#ffffb3" stroke="#000000" points="4177.58,-266 4032.42,-266 4032.42,-230 4177.58,-230 4177.58,-266"/>
<text text-anchor="middle" x="4105" y="-243.8" font-family="Times,serif" font-size="14.00" fill="#000000">LoadImageComponent</text>
</g>
<!-- LoadImageComponent&#45;&gt;UtilsModule -->
<g id="edge42" class="edge">
<title>LoadImageComponent&#45;&gt;UtilsModule</title>
<path fill="none" stroke="#000000" d="M4040.3524,-229.9489C4040.3524,-215.627 4040.3524,-198 4040.3524,-198 4040.3524,-198 3688.0505,-198 3688.0505,-198 3688.0505,-198 3688.0505,-197.2058 3688.0505,-197.2058"/>
<polygon fill="#000000" stroke="#000000" points="3691.5507,-200.0578 3688.0505,-190.0579 3684.5507,-200.0579 3691.5507,-200.0578"/>
</g>
<!-- PaginationComponent -->
<g id="node44" class="node">
<title>PaginationComponent</title>
<polygon fill="#ffffb3" stroke="#000000" points="4014.7162,-266 3873.2838,-266 3873.2838,-230 4014.7162,-230 4014.7162,-266"/>
<text text-anchor="middle" x="3944" y="-243.8" font-family="Times,serif" font-size="14.00" fill="#000000">PaginationComponent</text>
</g>
<!-- PaginationComponent&#45;&gt;UtilsModule -->
<g id="edge43" class="edge">
<title>PaginationComponent&#45;&gt;UtilsModule</title>
<path fill="none" stroke="#000000" d="M3878.5736,-229.9891C3878.5736,-207.5148 3878.5736,-172 3878.5736,-172 3878.5736,-172 3711.3151,-172 3711.3151,-172"/>
<polygon fill="#000000" stroke="#000000" points="3711.3151,-168.5001 3701.3151,-172 3711.315,-175.5001 3711.3151,-168.5001"/>
</g>
<!-- CarouselComponent -->
<g id="node45" class="node">
<title>CarouselComponent</title>
<polygon fill="#ffffb3" stroke="#000000" points="3855.594,-266 3724.406,-266 3724.406,-230 3855.594,-230 3855.594,-266"/>
<text text-anchor="middle" x="3790" y="-243.8" font-family="Times,serif" font-size="14.00" fill="#000000">CarouselComponent</text>
</g>
<!-- CarouselComponent&#45;&gt;UtilsModule -->
<g id="edge44" class="edge">
<title>CarouselComponent&#45;&gt;UtilsModule</title>
<path fill="none" stroke="#000000" d="M3732.5116,-229.692C3732.5116,-209.8545 3732.5116,-181 3732.5116,-181 3732.5116,-181 3711.3437,-181 3711.3437,-181"/>
<polygon fill="#000000" stroke="#000000" points="3711.3437,-177.5001 3701.3437,-181 3711.3436,-184.5001 3711.3437,-177.5001"/>
</g>
</g>
</svg>
